<?xml version="1.0" standalone="no"?>
<!DOCTYPE svg PUBLIC "-//W3C//DTD SVG 20010904//EN"
 "http://www.w3.org/TR/2001/REC-SVG-20010904/DTD/svg10.dtd">
<svg version="1.0" xmlns="http://www.w3.org/2000/svg"
 width="1080.000000pt" height="1080.000000pt" viewBox="0 0 1080.000000 1080.000000"
 preserveAspectRatio="xMidYMid meet">
<metadata>
Created by potrace 1.14, written by Peter Selinger 2001-2017
</metadata>
<g transform="translate(0.000000,1080.000000) scale(0.100000,-0.100000)"
fill="#000000" stroke="none">
<path d="M5114 10169 c-29 -4 -58 -10 -65 -14 -7 -5 -10 -4 -6 2 6 9 -61 -2
-163 -28 -73 -18 -80 -21 -80 -33 0 -7 -18 -21 -39 -31 -22 -9 -41 -26 -44
-36 -4 -14 -14 -19 -36 -19 -19 0 -34 -6 -37 -15 -4 -8 -12 -15 -19 -15 -7 0
-18 -7 -25 -15 -7 -9 -27 -22 -44 -29 -73 -33 -129 -56 -137 -56 -9 0 -37 -21
-69 -51 -9 -9 -25 -18 -36 -21 -64 -19 -152 -56 -169 -71 -11 -10 -30 -20 -42
-23 -13 -4 -23 -13 -23 -21 0 -8 -4 -11 -10 -8 -5 3 -10 1 -10 -6 0 -6 -13
-27 -30 -46 -16 -18 -30 -31 -30 -27 0 3 -6 1 -14 -5 -7 -6 -20 -9 -28 -6 -10
4 -17 -1 -20 -12 -3 -11 -23 -23 -51 -32 -42 -12 -64 -31 -37 -31 6 0 5 -8 -2
-20 -7 -11 -18 -20 -25 -20 -7 0 -18 -9 -25 -20 -7 -11 -17 -20 -23 -20 -5 0
-19 -12 -29 -27 -17 -24 -18 -27 -3 -38 14 -10 11 -13 -19 -24 -32 -11 -47
-31 -24 -31 6 0 10 -5 10 -11 0 -6 -9 -9 -20 -6 -10 3 -24 -1 -31 -9 -6 -8
-18 -14 -25 -14 -8 0 -15 -12 -16 -27 -2 -33 -5 -64 -7 -78 -1 -5 -6 -3 -11 5
-8 13 -14 11 -35 -12 -14 -16 -31 -28 -37 -28 -6 0 -8 -11 -6 -24 4 -19 0 -26
-19 -31 -29 -7 -63 -60 -63 -97 0 -20 -5 -28 -17 -28 -19 0 -63 -67 -63 -95 0
-9 -7 -23 -15 -31 -10 -10 -15 -35 -15 -69 0 -44 3 -53 20 -58 23 -6 90 12 90
25 0 4 18 8 40 8 22 0 40 5 40 10 0 6 13 10 29 10 16 0 36 7 45 15 8 8 23 15
34 15 11 0 23 7 26 16 3 9 13 14 20 11 8 -3 17 1 20 9 3 8 14 14 25 14 11 0
22 4 25 9 5 8 46 5 76 -6 8 -3 34 -5 58 -4 37 2 42 0 42 -18 0 -19 6 -21 55
-21 l55 0 0 -33 c0 -18 5 -38 12 -45 9 -9 7 -12 -13 -12 -13 0 -44 -11 -69
-24 -25 -13 -62 -26 -82 -30 -22 -4 -38 -13 -38 -20 0 -12 -42 -28 -79 -30 -8
-1 -16 -7 -19 -14 -2 -6 -9 -12 -15 -12 -14 0 -120 -42 -127 -50 -3 -4 -21
-12 -40 -20 -19 -7 -46 -22 -59 -32 -13 -10 -32 -18 -42 -18 -11 0 -19 -6 -19
-14 0 -8 -7 -16 -15 -20 -8 -3 -15 -12 -15 -20 0 -21 -32 -86 -42 -86 -4 0 -8
-10 -8 -22 0 -13 -4 -29 -9 -37 -6 -9 5 -26 37 -57 50 -49 52 -50 52 -29 0 10
10 15 33 15 51 0 127 31 127 52 0 14 8 18 39 18 30 0 46 7 69 30 17 17 33 30
37 30 4 0 13 7 22 15 8 9 28 19 44 22 20 4 29 12 29 24 0 13 7 19 24 19 13 0
26 7 30 15 3 8 12 15 20 15 21 0 86 32 86 42 0 4 8 8 18 8 10 0 22 4 27 8 12
10 82 35 148 52 26 7 47 16 47 20 0 4 16 11 36 15 52 9 83 25 89 47 4 10 16
18 29 18 23 0 56 28 56 47 0 6 7 16 15 23 21 18 19 27 -12 47 -32 21 -135 20
-188 -3 -19 -8 -50 -14 -70 -14 -19 0 -35 -4 -35 -8 0 -5 -17 -8 -37 -7 -35 1
-38 3 -41 33 -3 31 -2 32 37 32 23 0 41 -4 41 -10 0 -5 18 -10 40 -10 22 0 40
4 40 9 0 5 6 11 13 14 6 2 1 2 -12 0 -45 -8 -161 9 -161 23 0 10 27 14 117 16
115 3 117 3 124 28 4 14 7 19 8 13 1 -18 121 -17 155 1 26 13 76 11 76 -5 0
-4 12 -4 28 1 15 5 43 11 62 13 19 2 58 14 85 27 28 12 71 25 98 28 26 2 47 8
47 13 0 4 18 14 40 20 22 7 40 16 40 21 0 4 18 8 40 8 22 0 40 -4 40 -8 0 -5
18 -15 40 -22 37 -12 40 -16 40 -52 0 -21 4 -38 8 -38 10 0 52 -85 52 -106 0
-9 -7 -14 -18 -12 -11 2 -25 -2 -33 -9 -8 -6 -45 -18 -84 -27 -38 -8 -101 -22
-140 -31 -38 -9 -95 -16 -125 -16 -45 0 -58 -3 -68 -19 -7 -12 -8 -20 -2 -20
5 0 10 -24 10 -53 0 -51 1 -54 35 -70 20 -9 44 -17 54 -17 10 0 21 -3 25 -7
11 -11 280 -3 284 8 2 5 31 9 65 9 60 0 138 20 164 42 9 7 13 7 13 0 0 -6 41
-12 98 -15 122 -6 172 -17 221 -50 44 -29 99 -40 184 -38 59 2 64 -3 58 -56
-2 -14 64 -37 79 -28 16 10 80 -15 80 -31 0 -10 12 -14 39 -14 22 0 43 -4 46
-10 3 -5 22 -10 41 -10 39 0 45 -16 12 -29 -21 -8 -22 -10 -4 -16 11 -5 21 -3
26 6 7 11 13 10 29 -5 13 -12 29 -17 47 -13 21 4 34 -3 61 -29 32 -33 37 -34
108 -34 69 0 75 -2 75 -21 0 -24 68 -58 80 -40 9 16 39 -9 45 -38 6 -33 29
-47 33 -21 4 26 7 26 43 -12 20 -22 32 -29 36 -20 2 6 20 12 39 12 27 0 44 -9
76 -41 23 -23 44 -36 46 -30 2 6 21 11 43 11 37 0 39 -2 39 -30 0 -29 2 -30
44 -30 39 0 50 -5 84 -40 21 -22 46 -40 55 -40 14 0 17 -12 17 -80 0 -73 2
-80 20 -80 17 0 20 7 20 40 0 22 5 40 10 40 6 0 10 -18 10 -40 0 -38 2 -40 30
-40 l30 0 0 -120 c0 -113 -1 -120 -20 -120 -18 0 -20 -7 -20 -84 l0 -84 -30 3
-30 3 0 -79 c0 -46 4 -79 10 -79 6 0 10 -33 10 -80 l0 -80 -40 0 -40 0 0 40
c0 22 -4 40 -10 40 -6 0 -10 -33 -10 -80 l0 -80 -40 0 -40 0 0 -40 c0 -29 -4
-40 -15 -40 -11 0 -15 -11 -15 -40 0 -29 -4 -40 -15 -40 -9 0 -15 9 -15 25 0
30 -11 32 -33 7 -21 -23 -21 -32 -2 -32 11 0 15 -11 15 -40 0 -29 -4 -40 -15
-40 -11 0 -15 -11 -15 -40 0 -36 -2 -40 -25 -40 -22 0 -25 -4 -25 -40 0 -25 5
-40 13 -41 6 0 0 -5 -16 -11 -30 -11 -28 -28 4 -28 28 0 24 -18 -6 -26 -22 -5
-25 -12 -25 -50 0 -40 -2 -44 -25 -44 l-25 0 0 -120 0 -120 -30 0 c-28 0 -30
2 -30 40 0 22 -4 40 -10 40 -6 0 -10 -33 -10 -80 l0 -80 -30 0 c-16 0 -30 5
-30 11 0 5 -4 7 -10 4 -6 -4 -10 -58 -10 -131 l0 -124 -70 0 -70 0 0 -40 c0
-22 -4 -40 -10 -40 -5 0 -10 -18 -10 -40 0 -22 5 -40 10 -40 6 0 10 -7 10 -15
0 -11 -11 -15 -40 -15 -36 0 -40 -2 -40 -25 0 -22 -4 -25 -40 -25 -38 0 -40
-2 -40 -30 l0 -30 -80 0 c-47 0 -80 -4 -80 -10 0 -6 33 -10 80 -10 64 0 80 -3
80 -15 0 -12 -16 -15 -80 -15 -79 0 -80 0 -80 -25 0 -22 -4 -25 -40 -25 -22 0
-40 5 -40 10 0 15 -70 12 -86 -4 -8 -8 -14 -31 -14 -50 l0 -36 -70 0 c-56 0
-70 -3 -70 -15 0 -12 -16 -15 -80 -15 -64 0 -80 -3 -80 -15 0 -12 -16 -15 -80
-15 l-80 0 0 -50 0 -50 -80 0 -80 0 0 -55 0 -55 -40 0 c-29 0 -40 4 -40 15 0
11 -11 15 -40 15 l-40 0 -1 -52 c0 -29 -3 -47 -6 -40 -3 8 -29 12 -79 12 l-74
0 0 -34 c0 -36 -9 -44 -52 -41 -27 2 -28 0 -28 -42 l0 -43 -41 0 -41 0 3 44
c3 32 1 42 -8 39 -15 -6 -18 -83 -3 -83 6 0 10 -37 10 -90 l0 -90 -40 0 c-38
0 -40 -2 -40 -30 0 -28 -2 -30 -41 -30 -24 0 -38 4 -34 10 9 14 -6 150 -16
150 -5 0 -9 -36 -9 -80 l0 -80 -30 0 c-28 0 -30 -2 -30 -39 0 -22 5 -41 12
-43 25 -9 -20 -38 -56 -38 -30 0 -36 -4 -36 -21 0 -20 -4 -21 -69 -17 -54 4
-68 2 -64 -9 3 -7 -2 -16 -11 -19 -9 -3 -16 -17 -16 -30 0 -21 -4 -24 -40 -24
-29 0 -40 -4 -40 -15 0 -11 -11 -15 -40 -15 -29 0 -40 -4 -40 -15 0 -11 -12
-15 -45 -15 -39 0 -46 -3 -60 -30 -19 -37 -43 -50 -90 -50 -30 0 -44 -8 -78
-43 -33 -34 -42 -39 -45 -24 -5 24 -17 21 -40 -8 -20 -25 -42 -33 -42 -15 0 6
-9 5 -22 -2 -29 -18 -58 -46 -58 -58 0 -5 -18 -10 -41 -10 -26 0 -53 -8 -77
-25 -25 -17 -50 -25 -79 -25 -32 0 -43 -4 -43 -15 0 -10 -11 -15 -35 -15 -19
0 -35 -5 -35 -11 0 -5 5 -7 10 -4 6 3 10 2 10 -4 0 -15 -23 -26 -28 -13 -6 19
-28 14 -44 -10 -12 -18 -23 -21 -74 -19 -59 1 -124 -24 -124 -49 0 -5 -18 -10
-40 -10 -37 0 -40 -2 -40 -27 -1 -43 -43 -68 -107 -65 -51 3 -53 2 -53 -22 0
-16 -6 -26 -15 -26 -11 0 -15 -11 -15 -40 0 -28 -4 -40 -15 -40 -18 0 -33 -69
-17 -79 8 -5 7 -15 -3 -35 -8 -16 -15 -35 -15 -43 0 -8 -9 -26 -19 -39 -17
-21 -19 -41 -18 -154 0 -72 5 -130 10 -130 5 0 6 -36 2 -85 -6 -75 -5 -85 9
-85 24 0 19 -27 -6 -34 l-23 -7 23 -11 c12 -6 22 -15 22 -20 0 -6 9 -21 20
-35 11 -14 20 -34 20 -45 0 -30 39 -90 83 -125 24 -21 33 -33 23 -33 -9 0 -16
-4 -16 -9 0 -12 29 -41 41 -41 5 0 9 -11 9 -25 0 -18 9 -31 30 -43 16 -9 30
-23 30 -29 0 -7 8 -13 18 -13 10 0 25 -17 37 -43 13 -29 21 -36 23 -25 3 14 7
16 23 8 10 -6 19 -17 19 -25 0 -27 35 -82 49 -77 8 3 11 0 7 -6 -3 -6 17 -22
49 -37 30 -15 55 -31 55 -35 0 -5 27 -21 60 -37 33 -15 60 -31 60 -35 0 -5 9
-8 20 -8 11 0 20 -5 20 -10 0 -6 20 -19 45 -30 25 -11 45 -24 45 -30 0 -5 11
-10 23 -10 13 0 32 -9 42 -20 10 -11 29 -20 42 -20 12 0 32 -9 44 -21 11 -11
27 -18 34 -15 7 2 19 -2 26 -10 10 -13 108 -48 135 -49 16 0 67 -28 76 -40 5
-6 8 -5 8 3 0 7 15 -1 33 -17 34 -33 47 -38 47 -20 0 7 10 5 25 -5 13 -9 33
-16 43 -16 10 0 22 -4 27 -9 6 -5 27 -14 49 -21 21 -7 63 -25 93 -41 30 -16
61 -29 68 -29 7 0 16 -11 19 -25 8 -30 56 -77 73 -71 20 8 73 -14 84 -35 5
-10 16 -19 24 -19 12 0 15 -21 15 -117 l0 -118 -34 -27 c-19 -16 -38 -28 -42
-28 -3 0 -19 -11 -36 -25 -16 -14 -41 -28 -56 -32 -14 -3 -41 -21 -59 -40 -19
-18 -38 -33 -43 -33 -6 0 -10 -4 -10 -10 0 -5 -6 -10 -14 -10 -8 0 -24 -15
-35 -32 -11 -18 -36 -46 -56 -61 -29 -24 -35 -34 -35 -67 0 -22 -4 -40 -10
-40 -5 0 -10 -5 -10 -11 0 -6 -11 -20 -25 -31 -21 -16 -25 -28 -25 -68 0 -27
-6 -55 -13 -62 -7 -7 -21 -30 -30 -50 -11 -24 -27 -40 -42 -44 -20 -5 -25 -13
-25 -36 0 -16 -9 -41 -20 -55 -11 -14 -20 -34 -20 -44 0 -10 -10 -37 -23 -61
-16 -30 -28 -42 -41 -40 -25 5 -57 -32 -53 -60 2 -13 2 -17 0 -10 -3 6 -14 12
-26 12 -16 0 -27 -11 -39 -40 -12 -30 -22 -40 -39 -40 -12 0 -30 -6 -38 -13
-18 -14 -106 -43 -161 -52 -19 -3 -50 -8 -67 -12 -20 -3 -33 -11 -33 -20 0 -8
-14 -26 -31 -40 -26 -23 -30 -32 -27 -65 2 -21 0 -38 -4 -38 -3 0 -9 -8 -11
-17 -4 -16 -5 -16 -6 0 -2 33 -26 11 -29 -26 l-3 -37 3105 0 c1775 0 3106 4
3106 9 0 5 -7 14 -16 22 -8 7 -13 21 -10 31 2 11 -2 22 -10 25 -17 6 -18 30
-1 36 6 2 -5 12 -25 22 -30 15 -38 25 -43 55 -4 26 -14 41 -31 48 -27 13 -32
32 -9 32 12 0 11 4 -5 20 -11 11 -20 26 -20 33 0 8 -4 7 -10 -3 -8 -12 -10
-11 -10 8 0 13 -11 33 -24 45 -12 12 -26 38 -30 57 -4 20 -18 44 -33 55 -82
64 -223 200 -223 216 0 4 -10 9 -22 11 -12 2 -29 17 -38 33 -10 17 -26 31 -40
33 -25 4 -59 38 -60 61 0 7 -6 11 -15 8 -8 -4 -17 -2 -20 3 -9 14 -42 12 -48
-2 -4 -9 -6 -7 -6 3 -1 21 -48 44 -141 69 -41 12 -83 25 -92 31 -10 5 -31 9
-48 9 -20 0 -30 5 -30 15 0 11 -13 15 -57 16 -166 3 -261 10 -279 22 -6 3 -25
8 -42 9 -26 2 -32 8 -43 43 -7 22 -17 43 -21 46 -10 7 -33 130 -52 283 -8 60
-19 112 -24 115 -5 3 -13 41 -17 84 -3 42 -11 77 -16 77 -5 0 -9 20 -9 44 0
24 -7 80 -15 123 -8 43 -15 95 -15 116 0 21 -7 48 -15 61 -17 25 -38 167 -29
191 4 8 0 23 -7 32 -10 12 -15 71 -19 227 -4 188 -3 215 13 246 20 40 22 57 5
62 -20 7 -16 88 5 99 9 6 17 17 17 25 0 8 6 17 14 20 20 8 28 32 17 52 -6 12
-4 24 5 37 8 11 10 21 5 25 -10 5 15 69 31 81 5 3 15 39 24 80 8 41 22 84 30
96 8 12 14 31 14 43 0 11 6 20 13 20 13 1 57 80 57 105 0 8 6 15 14 15 18 0
47 45 40 63 -3 8 2 20 11 27 8 7 15 23 15 37 0 13 7 31 15 39 8 9 15 33 15 55
0 49 21 130 38 147 8 9 10 26 7 46 -5 24 -2 36 14 50 12 11 21 25 21 33 0 8
10 27 22 43 13 19 23 49 26 85 2 30 8 53 12 50 4 -2 10 21 12 53 3 32 15 76
27 97 11 22 18 47 16 56 -3 10 -1 20 5 24 5 3 10 20 10 36 0 17 4 28 9 25 5
-3 9 16 9 42 0 26 10 81 22 122 24 83 40 145 44 175 2 11 6 27 9 35 5 15 12
49 23 125 3 22 9 49 14 60 18 43 18 69 -2 113 -18 43 -19 54 -9 132 7 47 14
110 16 140 2 30 7 65 10 78 6 18 3 24 -12 28 -18 5 -20 12 -16 52 6 73 24 132
39 132 8 0 14 10 14 23 0 13 3 27 7 31 4 3 8 27 10 52 1 25 8 53 15 61 7 9 14
59 16 133 l4 117 -33 26 c-19 14 -47 29 -63 33 -17 4 -45 22 -63 40 -28 28
-33 41 -33 79 0 25 -4 45 -10 45 -5 0 -10 14 -10 30 0 28 2 30 40 30 22 0 40
5 40 10 0 6 -18 10 -40 10 -29 0 -40 4 -40 15 0 11 11 15 40 15 29 0 40 4 40
15 0 11 11 15 36 15 28 0 43 8 74 40 36 37 42 40 94 40 30 0 58 5 61 10 3 6
14 10 23 10 9 0 33 20 52 45 19 24 41 44 48 45 6 0 12 6 12 14 0 7 18 34 40
59 31 35 40 53 40 82 0 22 8 47 20 63 18 22 20 35 15 91 -3 36 -7 84 -9 106
-2 22 -13 58 -26 80 -13 22 -22 55 -22 73 1 20 -4 35 -12 38 -8 3 -19 18 -26
34 -7 16 -18 31 -26 34 -8 3 -14 10 -14 15 0 6 -11 27 -25 47 -14 20 -25 34
-25 30 0 -4 -20 9 -45 30 -25 20 -45 44 -45 54 0 10 -3 20 -8 22 -4 2 -25 27
-46 56 -21 28 -41 52 -46 52 -4 0 -20 10 -34 21 -18 14 -24 24 -16 29 7 4 -2
16 -24 31 -19 13 -38 34 -41 46 -3 13 -10 23 -15 23 -6 0 -10 5 -10 12 0 6 -8
21 -18 32 -10 12 -24 39 -31 61 -13 41 -42 106 -51 115 -12 11 -30 63 -30 85
0 15 -7 26 -20 30 -19 6 -22 11 -24 44 -1 8 -19 24 -41 36 -21 13 -41 28 -43
35 -3 7 -17 24 -33 40 -16 15 -29 32 -29 39 0 6 -4 11 -10 11 -5 0 -10 5 -10
12 0 6 -7 19 -16 29 -9 10 -22 42 -29 71 -7 29 -14 44 -15 33 -1 -18 -2 -18
-11 3 -5 13 -18 26 -29 29 -11 3 -20 10 -20 15 0 5 -9 21 -20 35 -13 17 -18
34 -14 49 5 19 0 26 -33 41 -21 10 -42 28 -48 41 -5 12 -18 25 -28 28 -10 3
-20 18 -24 34 -3 18 -10 27 -18 23 -8 -2 -20 5 -27 16 -7 12 -22 21 -34 21
-13 0 -24 8 -27 20 -3 11 -12 20 -20 20 -15 0 -37 18 -133 111 -29 27 -57 49
-63 49 -6 0 -11 5 -11 10 0 6 -18 10 -40 10 -27 0 -40 4 -40 13 0 8 -11 19
-24 25 -14 6 -26 21 -28 34 -2 19 -8 22 -32 20 -34 -4 -76 15 -76 35 0 7 -11
13 -25 13 -28 0 -29 3 -15 31 8 15 7 19 -4 19 -31 0 -29 59 3 61 9 1 3 5 -14
9 -16 4 -22 8 -12 9 12 1 17 7 15 19 -2 9 -10 16 -16 14 -7 -1 -12 2 -12 8 0
5 7 10 15 10 20 0 19 13 -2 33 -15 13 -27 14 -68 6 -49 -9 -105 -4 -105 10 0
4 5 12 11 18 15 15 -10 21 -118 26 -83 4 -124 20 -103 41 16 16 12 26 -10 26
-20 0 -24 8 -21 46 2 23 -23 49 -38 40 -5 -4 -12 -3 -15 2 -5 9 -94 7 -148 -3
-29 -6 -38 -4 -38 6 -1 10 -4 9 -11 -3 -12 -21 -29 -24 -29 -5 0 7 -21 18 -47
24 -135 30 -179 46 -205 75 -16 16 -28 36 -28 44 0 8 -7 14 -15 14 -23 0 -65
22 -65 35 0 6 -25 19 -56 29 -30 10 -58 24 -61 32 -3 8 -14 14 -24 14 -10 0
-19 3 -19 8 0 7 -104 39 -147 45 -12 2 -26 6 -29 10 -4 4 -16 7 -26 7 -10 0
-19 6 -19 13 -1 6 -2 17 -4 22 -1 6 -3 15 -4 20 -1 6 -5 3 -11 -5 -7 -12 -14
-12 -43 -2 -18 7 -46 12 -62 12 -15 0 -35 8 -44 19 -24 27 -67 47 -146 66 -38
10 -74 21 -79 26 -6 5 -18 9 -28 9 -9 0 -26 10 -37 21 -11 12 -26 19 -35 16
-9 -4 -21 0 -28 7 -23 23 -207 38 -304 25z m1541 -589 c3 -5 1 -10 -4 -10 -6
0 -11 5 -11 10 0 6 2 10 4 10 3 0 8 -4 11 -10z m-2575 -689 c0 -9 -70 -19 -89
-13 -28 9 -6 22 39 22 28 0 50 -4 50 -9z m3277 -1673 c-2 -13 -4 -3 -4 22 0
25 2 35 4 23 2 -13 2 -33 0 -45z m1043 -713 c0 -22 -4 -25 -40 -25 l-40 0 0
-41 0 -41 83 6 c45 3 76 3 70 0 -7 -3 -13 -23 -13 -45 l0 -39 50 0 50 0 0 -40
0 -40 -80 0 c-44 0 -80 4 -80 9 0 5 -35 12 -77 16 -70 6 -116 23 -135 50 -4 5
-8 29 -8 53 0 57 51 112 105 112 31 0 35 3 35 25 0 23 4 25 40 25 36 0 40 -2
40 -25z m-240 -155 c0 -33 -14 -38 -45 -14 -20 15 -20 15 -1 30 31 22 46 17
46 -16z m-2000 -1005 c0 -11 -11 -15 -40 -15 -29 0 -40 4 -40 15 0 11 11 15
40 15 29 0 40 -4 40 -15z m-2040 -1190 c0 -2 -9 -9 -20 -15 -16 -9 -20 -8 -20
5 0 8 9 15 20 15 11 0 20 -2 20 -5z m4914 -3323 c2 -4 1 -14 -4 -22 -7 -11
-12 -12 -21 -3 -6 6 -8 16 -5 22 8 13 23 14 30 3z m-4314 -17 c0 -12 16 -15
80 -15 64 0 80 3 80 15 0 11 11 15 40 15 l40 0 0 -55 c0 -30 -4 -55 -10 -55
-5 0 -10 -18 -10 -40 0 -22 5 -40 10 -40 6 0 10 18 10 40 l0 40 40 0 40 0 0
-40 0 -40 40 0 40 0 0 -40 0 -40 40 0 40 0 0 -40 0 -40 -40 0 -40 0 0 -55 0
-55 -40 0 -40 0 0 55 0 55 -40 0 c-22 0 -40 5 -40 10 0 6 -18 10 -40 10 -22 0
-40 -4 -40 -10 0 -5 18 -10 40 -10 l40 0 0 -40 0 -40 -80 0 -80 0 0 40 0 40
-40 0 -40 0 0 80 0 80 -40 0 -40 0 0 95 0 95 40 0 c29 0 40 -4 40 -15z"/>
<path d="M3740 8676 c0 -41 2 -46 23 -45 12 0 16 3 10 6 -7 2 -13 20 -13 38 0
19 -4 37 -10 40 -6 4 -10 -12 -10 -39z"/>
<path d="M3895 8700 c-3 -5 1 -10 9 -10 9 0 16 5 16 10 0 6 -4 10 -9 10 -6 0
-13 -4 -16 -10z"/>
<path d="M4610 8283 c-163 -9 -210 -15 -210 -29 0 -8 -10 -14 -24 -14 -38 0
-116 -37 -116 -56 0 -8 14 -21 30 -27 52 -20 40 -28 -46 -31 -11 -1 -35 -13
-53 -28 -18 -16 -36 -28 -40 -28 -4 0 -15 -16 -24 -35 -9 -19 -23 -35 -32 -35
-10 0 -15 -9 -15 -26 l0 -26 78 7 c42 4 79 11 80 16 2 5 62 9 134 9 115 0 129
-2 118 -15 -7 -8 -21 -15 -32 -15 -10 0 -17 -4 -14 -9 3 -4 22 -8 43 -8 24 0
72 -17 133 -46 52 -25 97 -41 98 -36 5 12 162 12 162 0 0 -6 -17 -12 -37 -14
-21 -2 -3 -3 40 -2 42 1 77 -2 77 -7 0 -13 24 -10 58 7 19 10 29 21 26 30 -6
16 27 24 121 28 44 3 60 7 60 18 0 7 9 15 20 17 11 2 24 8 29 13 6 5 26 9 45
9 43 0 81 10 81 20 0 4 -10 12 -22 18 l-23 11 23 0 c19 1 22 6 22 42 0 41 0
41 31 35 27 -5 28 -4 15 9 -8 8 -31 15 -50 15 -32 0 -36 -3 -36 -25 0 -22 -4
-25 -40 -25 -29 0 -40 4 -40 15 0 9 9 15 25 15 14 0 25 5 25 10 0 6 7 10 15
10 8 0 15 9 15 20 0 11 -7 20 -15 20 -8 0 -15 5 -15 10 0 6 7 10 15 10 8 0 15
7 15 15 0 12 -16 15 -80 15 -47 0 -80 -4 -80 -10 0 -5 -15 -10 -34 -10 -19 0
-38 5 -41 10 -8 13 -35 13 -35 1 0 -5 8 -12 18 -15 9 -3 -1 -3 -23 0 -22 3
-43 10 -46 15 -3 5 -58 12 -122 16 -64 3 -117 10 -117 15 0 4 -18 8 -40 8 -22
0 -40 5 -40 10 0 6 -9 10 -21 10 -11 0 -18 4 -15 9 11 17 -30 36 -74 34z m700
-163 c0 -11 -7 -20 -15 -20 -8 0 -15 9 -15 20 0 11 7 20 15 20 8 0 15 -9 15
-20z m-645 -210 c-3 -5 -10 -10 -16 -10 -5 0 -9 5 -9 10 0 6 7 10 16 10 8 0
12 -4 9 -10z"/>
<path d="M4225 8187 c-4 -10 -5 -21 -1 -24 10 -10 18 4 13 24 -4 17 -4 17 -12
0z"/>
<path d="M5448 7993 c7 -3 16 -2 19 1 4 3 -2 6 -13 5 -11 0 -14 -3 -6 -6z"/>
<path d="M2940 6693 c-34 -7 -57 -29 -71 -70 -8 -26 -15 -32 -29 -28 -24 8
-29 -10 -20 -73 5 -41 3 -55 -7 -59 -23 -9 -15 -50 15 -73 25 -21 34 -22 127
-16 65 4 119 13 155 27 30 11 63 23 73 26 9 3 17 9 17 13 0 5 9 12 20 15 16 5
20 15 20 55 0 27 5 50 10 52 7 2 3 21 -9 48 -20 46 -51 65 -121 77 -44 8 -154
11 -180 6z"/>
<path d="M8800 6059 c0 -11 5 -17 10 -14 6 3 10 13 10 21 0 8 -4 14 -10 14 -5
0 -10 -9 -10 -21z"/>
<path d="M3274 5771 c-62 -4 -99 -12 -117 -24 -15 -10 -32 -15 -37 -12 -10 6
-63 -27 -90 -56 -8 -9 -24 -18 -35 -20 -24 -5 -33 -48 -13 -60 11 -7 10 -11
-2 -19 -11 -7 -16 -5 -18 5 -8 36 -22 10 -22 -39 0 -43 5 -58 24 -77 21 -22
70 -106 68 -119 0 -3 2 -7 4 -9 2 -2 4 9 4 26 l0 31 76 7 c41 4 78 4 81 1 4
-3 -12 -6 -35 -6 -23 0 -42 -4 -42 -10 0 -17 89 -11 128 9 33 17 65 19 312 20
175 0 276 4 278 11 2 5 21 10 43 10 39 0 39 0 39 40 l0 40 -40 0 -40 0 0 40
c0 36 3 40 25 40 30 0 32 11 7 33 -23 21 -32 21 -32 2 0 -11 -11 -15 -40 -15
-34 0 -40 3 -40 20 0 12 -10 24 -22 30 -19 7 -16 9 20 9 43 1 56 14 25 26 -10
3 -19 1 -21 -4 -6 -18 -82 -14 -82 4 0 11 11 15 40 15 22 0 40 5 40 10 0 6
-18 10 -40 10 -22 0 -40 5 -40 10 0 6 -18 10 -40 10 -22 0 -40 -4 -40 -10 0
-5 -18 -10 -40 -10 -23 0 -40 5 -40 11 0 8 -18 10 -57 7 -32 -3 -50 -3 -40 -1
9 3 17 9 17 14 0 9 -18 9 -166 0z m-294 -245 c0 -3 -4 -8 -10 -11 -5 -3 -10
-1 -10 4 0 6 5 11 10 11 6 0 10 -2 10 -4z m540 -96 c0 -5 -18 -10 -40 -10 -22
0 -40 5 -40 10 0 6 18 10 40 10 22 0 40 -4 40 -10z"/>
<path d="M5378 5053 c12 -2 30 -2 40 0 9 3 -1 5 -23 4 -22 0 -30 -2 -17 -4z"/>
</g>
</svg>
