<?xml version="1.0" standalone="no"?>
<!DOCTYPE svg PUBLIC "-//W3C//DTD SVG 20010904//EN"
 "http://www.w3.org/TR/2001/REC-SVG-20010904/DTD/svg10.dtd">
<svg version="1.0" xmlns="http://www.w3.org/2000/svg"
 width="1570.000000pt" height="2932.000000pt" viewBox="0 0 1570.000000 2932.000000"
 preserveAspectRatio="xMidYMid meet">
<metadata>
Created by potrace 1.16, written by Peter Selinger 2001-2019
</metadata>
<g transform="translate(0.000000,2932.000000) scale(0.100000,-0.100000)"
fill="#000000" stroke="none">
<path d="M3670 27949 c-539 -25 -883 -90 -1155 -218 -215 -102 -467 -299 -633
-496 -245 -290 -364 -551 -431 -943 -63 -371 -71 -631 -71 -2289 l0 -1423 -40
0 c-29 0 -42 -5 -50 -19 -6 -13 -10 -179 -10 -470 0 -435 1 -451 19 -461 11
-5 33 -10 50 -10 l31 0 0 -480 0 -480 -40 0 c-29 0 -42 -5 -50 -19 -7 -13 -10
-328 -10 -950 0 -910 0 -931 19 -941 11 -5 33 -10 50 -10 l31 0 0 -310 0 -310
-33 0 c-72 0 -67 68 -67 -968 l0 -931 22 -15 c12 -9 35 -16 50 -16 l28 0 0
-6152 c0 -3915 4 -6231 10 -6368 33 -720 118 -1064 347 -1405 184 -273 474
-535 743 -670 279 -140 629 -208 1215 -235 296 -13 8009 -14 8305 0 720 33
1064 118 1405 347 273 184 535 474 670 743 140 279 208 629 235 1215 6 144 10
2455 10 6693 l0 6472 33 0 c20 0 41 8 50 18 16 17 17 141 17 1583 0 860 -4
1569 -8 1575 -11 16 -48 34 -71 34 l-21 0 0 2693 c0 1627 -4 2777 -10 2907
-33 720 -118 1064 -347 1405 -184 273 -474 535 -743 670 -279 140 -629 208
-1215 235 -259 12 -8076 11 -8335 -1z m8490 -27 c508 -42 783 -100 1023 -216
350 -168 697 -514 875 -871 124 -247 183 -527 224 -1055 15 -190 22 -21629 8
-22010 -13 -343 -33 -558 -71 -777 -20 -114 -20 -60 0 78 23 158 38 302 53
534 14 200 21 21399 7 21849 -31 1047 -163 1449 -625 1896 -375 363 -718 495
-1429 550 -316 24 -1062 29 -4375 29 -3317 0 -4071 -5 -4385 -29 -724 -56
-1087 -205 -1475 -606 -365 -377 -502 -737 -549 -1439 -6 -88 -14 -187 -17
-220 -3 -33 -9 -4891 -13 -10795 l-6 -10735 0 10760 c1 8305 4 10795 13 10915
42 537 101 810 231 1068 157 311 443 612 757 798 299 176 677 257 1324 283
345 14 8259 7 8430 -7z m-6815 -625 c26 -14 48 -37 63 -67 20 -40 22 -58 22
-210 0 -195 12 -258 72 -374 84 -163 258 -295 436 -331 63 -13 317 -15 1945
-13 1790 3 1874 4 1927 21 173 59 315 178 388 327 62 126 72 178 72 370 0 152
2 169 22 210 17 33 35 51 68 68 l44 22 881 0 c484 0 943 -5 1020 -10 359 -25
671 -162 927 -408 276 -265 432 -598 458 -977 13 -193 13 -22340 0 -22530 -25
-359 -162 -671 -408 -927 -265 -276 -598 -432 -977 -458 -191 -13 -8722 -13
-8910 0 -359 25 -671 162 -927 408 -276 265 -432 598 -458 977 -13 193 -13
22340 0 22530 25 359 162 671 408 927 153 159 301 261 500 346 141 59 310 101
452 111 63 5 525 9 1025 9 l910 2 40 -23z m-3965 -5151 c0 -266 -4 -417 -10
-421 -5 -3 -10 -12 -10 -18 0 -7 4 -6 10 3 8 12 10 9 10 -13 0 -26 -2 -28 -42
-25 l-43 3 -3 424 c-2 384 -1 426 14 443 10 10 30 18 46 18 l28 0 0 -414z m0
-1526 c0 -11 -4 -20 -10 -20 -5 0 -10 -8 -11 -17 0 -15 -2 -15 -9 2 -5 11 -9
14 -9 7 -1 -7 -5 -10 -11 -7 -5 3 -10 -1 -10 -10 0 -9 5 -13 10 -10 6 3 10 -1
10 -10 0 -9 -4 -14 -8 -11 -4 2 -9 -4 -9 -15 -2 -16 1 -17 18 -9 23 13 49 2
28 -11 -11 -7 -11 -9 -1 -9 10 0 12 -160 12 -787 -1 -534 -4 -782 -11 -770 -5
9 -20 17 -32 16 -21 0 -21 -1 3 -11 25 -11 25 -11 3 -15 -22 -4 -33 -23 -13
-23 6 0 10 -5 10 -11 0 -5 -4 -8 -9 -5 -4 3 -8 -8 -7 -24 1 -33 3 -34 28 -25
14 5 15 11 8 25 -14 26 -12 50 3 50 8 0 13 -21 15 -65 l2 -66 -42 3 -43 3 -3
904 c-2 831 -1 906 14 923 24 26 74 24 74 -2z m12965 -779 c-3 -5 -1 -12 4
-15 5 -3 10 -36 10 -73 1 -38 4 -84 7 -103 13 -98 19 -486 19 -1250 0 -845 -5
-1041 -29 -1204 -1 -11 -10 -20 -19 -22 -16 -2 -17 89 -17 1324 0 955 3 1329
11 1339 13 15 23 18 14 4z m-12965 -1767 c0 -8 -7 -22 -15 -30 -8 -9 -15 -11
-15 -6 0 5 -7 9 -15 9 -11 0 -15 -10 -13 -38 3 -32 5 -36 21 -28 9 6 22 7 27
4 6 -4 10 -292 10 -798 l0 -793 -27 -2 c-35 -3 -39 -8 -22 -29 8 -9 9 -14 3
-10 -7 4 -11 -5 -10 -26 2 -26 6 -31 21 -29 27 5 28 7 15 32 -12 23 -7 50 10
50 7 0 8 -6 1 -18 -6 -11 -6 -24 0 -33 13 -21 11 -79 -3 -80 -41 -5 -64 -3
-70 6 -4 6 -8 415 -8 911 0 687 3 903 12 912 18 18 78 15 78 -4z m8177 -16701
c-939 -2 -2475 -2 -3415 0 -939 1 -170 2 1708 2 1878 0 2647 -1 1707 -2z"/>
<path d="M2421 19086 c-9 -10 -51 -203 -51 -230 0 -1 -18 0 -41 2 -40 4 -41 5
-35 36 19 88 19 125 1 132 -31 12 -50 -10 -61 -73 -15 -86 -19 -93 -53 -93
-30 0 -45 -19 -35 -45 4 -8 17 -15 30 -15 29 0 30 -13 9 -123 -19 -101 -19
-104 6 -112 33 -11 48 14 65 106 25 139 19 129 64 129 22 0 40 -2 40 -4 0 -2
-7 -40 -15 -83 -24 -123 -19 -153 24 -153 5 0 35 42 69 93 57 87 107 146 116
136 3 -2 -4 -49 -14 -103 -20 -99 -17 -126 14 -126 27 1 38 23 57 120 22 114
18 153 -14 175 -32 20 -71 8 -122 -37 -25 -22 -45 -36 -45 -30 0 5 11 71 25
146 20 106 23 141 14 152 -15 18 -33 18 -48 0z"/>
<path d="M4032 19091 c-7 -4 -23 -60 -35 -124 l-21 -115 -35 5 c-20 3 -38 7
-40 9 -1 1 2 35 9 74 13 79 8 94 -31 88 -21 -3 -26 -12 -39 -83 l-15 -80 -35
-5 c-29 -4 -35 -9 -35 -30 0 -17 6 -26 20 -28 35 -7 37 -17 21 -102 -21 -110
-21 -127 5 -135 34 -11 46 12 64 120 9 55 19 103 21 107 3 5 23 8 45 8 34 0
39 -3 35 -17 -3 -10 -12 -58 -21 -106 -13 -69 -14 -91 -4 -103 24 -29 45 -13
114 92 71 107 105 142 105 107 0 -10 -7 -53 -15 -96 -19 -101 -19 -104 6 -112
32 -11 47 12 64 100 25 132 20 180 -21 196 -33 12 -71 -4 -116 -49 -44 -42
-44 -44 -18 108 24 140 25 166 4 174 -19 7 -16 7 -32 -3z"/>
<path d="M4768 19086 c-8 -8 -20 -47 -27 -87 -7 -41 -26 -150 -43 -242 -23
-132 -27 -171 -17 -183 13 -16 28 -18 46 -6 12 8 93 433 93 489 0 19 -6 33
-16 37 -21 8 -21 8 -36 -8z"/>
<path d="M5712 18863 c-13 -3 -41 -22 -62 -44 -21 -21 -40 -39 -42 -39 -3 0
-5 17 -4 38 1 33 -2 37 -26 40 -32 4 -38 -14 -64 -171 -16 -94 -16 -109 -4
-117 29 -19 41 -9 105 88 65 99 100 140 111 129 3 -3 -2 -43 -10 -89 -21 -111
-20 -125 5 -133 33 -11 46 12 63 110 21 119 20 151 -4 175 -20 20 -25 21 -68
13z"/>
<path d="M6204 18863 c-12 -2 -41 -22 -65 -44 -23 -21 -43 -39 -44 -39 -1 0
-2 17 -1 38 1 33 -2 37 -26 40 -32 4 -39 -14 -68 -183 -11 -66 -27 -156 -35
-200 -8 -44 -14 -95 -15 -112 0 -28 4 -33 24 -33 34 0 41 15 56 105 20 122 20
121 85 128 100 10 156 76 171 199 6 52 4 59 -19 82 -14 14 -30 25 -34 25 -4
-1 -18 -4 -29 -6z"/>
<path d="M2695 18850 c-9 -14 -45 -216 -45 -251 0 -45 55 -49 65 -5 19 78 43
239 39 251 -7 17 -50 20 -59 5z"/>
<path d="M2817 18834 c-49 -48 -29 -100 59 -155 56 -34 45 -49 -36 -49 -58 0
-71 -3 -80 -19 -17 -33 12 -51 82 -51 72 0 122 21 138 59 16 40 0 72 -59 115
-28 21 -51 42 -51 47 0 5 20 9 44 9 65 0 98 15 94 43 -3 20 -9 22 -84 25 -76
3 -82 1 -107 -24z"/>
<path d="M3252 18848 c-10 -12 -52 -223 -52 -259 0 -24 38 -35 56 -17 17 17
60 248 51 272 -8 19 -40 21 -55 4z"/>
<path d="M3376 18839 c-23 -18 -27 -28 -24 -62 3 -37 9 -46 61 -85 31 -24 55
-48 52 -53 -4 -5 -35 -9 -69 -9 -46 0 -67 -4 -77 -16 -22 -27 1 -49 57 -52 69
-5 113 6 140 33 47 47 24 102 -62 156 -19 11 -34 25 -34 30 0 5 24 9 53 9 60
0 91 17 85 46 -3 16 -13 19 -79 22 -65 2 -79 0 -103 -19z"/>
<path d="M4334 18841 c-45 -27 -88 -119 -89 -189 0 -46 4 -57 25 -74 34 -28
110 -21 146 13 38 35 48 58 33 75 -17 20 -33 18 -67 -11 -32 -26 -72 -33 -72
-12 0 6 21 23 48 37 77 41 122 87 122 126 0 23 -6 37 -19 44 -31 16 -93 12
-127 -9z"/>
<path d="M4870 18834 c-88 -75 -105 -230 -29 -270 24 -12 37 -13 63 -4 67 22
145 134 146 208 0 82 -111 123 -180 66z"/>
<path d="M5137 18838 c-49 -29 -78 -90 -85 -177 -3 -54 -1 -70 13 -84 33 -34
110 -9 154 51 18 24 20 25 21 7 0 -29 -28 -160 -41 -189 -15 -31 -49 -46 -108
-46 -54 0 -85 -18 -79 -46 3 -15 13 -20 58 -22 30 -2 69 -1 87 3 38 7 88 46
108 85 24 46 87 411 74 427 -8 9 -36 13 -88 13 -60 0 -84 -5 -114 -22z"/>
<path d="M5420 18838 c-20 -48 -49 -252 -38 -265 12 -15 27 -16 46 -4 16 10
65 253 56 276 -9 24 -53 19 -64 -7z"/>
<path d="M6385 18842 c-42 -26 -52 -41 -75 -107 -24 -70 -26 -138 -4 -159 33
-34 99 -10 153 55 l20 24 1 -42 c0 -33 4 -43 21 -48 12 -4 26 -2 32 4 18 18
58 263 45 278 -17 21 -156 17 -193 -5z"/>
<path d="M6705 18850 c-33 -13 -73 -62 -90 -109 -20 -58 -20 -145 1 -165 32
-33 109 -7 153 52 25 33 26 22 6 -81 -23 -122 -45 -147 -130 -147 -58 0 -89
-17 -83 -46 3 -15 13 -20 58 -22 78 -5 116 5 154 38 45 40 51 56 90 275 25
136 32 193 24 202 -12 15 -150 17 -183 3z"/>
<path d="M7003 18840 c-41 -25 -83 -107 -90 -176 -5 -47 -3 -55 20 -78 56 -56
195 -6 185 66 -4 33 -38 35 -68 3 -26 -27 -70 -34 -70 -11 0 8 27 29 61 47 97
52 134 113 91 152 -25 23 -90 21 -129 -3z"/>
<path d="M3574 17937 c-2 -7 -3 -87 -1 -177 l3 -165 2 173 2 172 1740 0 1740
0 0 -220 0 -220 -1739 0 -1740 0 -4 48 -3 47 -2 -53 -2 -52 1748 2 1747 3 0
225 0 225 -1743 3 c-1416 2 -1744 0 -1748 -11z"/>
<path d="M2191 17838 c-21 -91 -26 -189 -10 -199 26 -16 42 -9 81 34 l40 42
-7 -37 c-6 -30 -4 -38 8 -38 11 0 18 20 27 73 7 39 16 88 21 107 13 50 11 70
-5 70 -9 0 -17 -15 -21 -39 -7 -41 -61 -141 -96 -176 -17 -17 -21 -18 -29 -5
-5 8 -7 22 -4 30 11 29 33 174 28 182 -12 18 -21 5 -33 -44z"/>
<path d="M4212 17820 c-20 -13 -40 -37 -52 -66 -24 -55 -24 -69 -2 -113 35
-71 129 -92 203 -46 22 14 37 30 34 35 -4 6 -21 -1 -39 -15 -51 -39 -114 -35
-160 9 -30 28 -36 40 -36 75 0 35 6 47 40 81 49 49 92 54 139 14 25 -20 31
-34 31 -63 0 -24 -7 -44 -18 -54 -27 -25 -46 -22 -38 6 3 12 9 40 13 61 6 36
5 39 -15 34 -12 -4 -25 -2 -28 3 -9 16 -30 10 -58 -16 -19 -18 -26 -34 -26
-63 0 -22 6 -44 13 -50 6 -5 38 -10 71 -10 77 0 106 25 106 92 0 39 -4 48 -37
75 -45 37 -92 41 -141 11z"/>
<path d="M3781 17764 c-41 -53 -14 -124 47 -124 38 0 62 28 62 73 0 69 -69
101 -109 51z"/>
<path d="M3947 17778 c-54 -42 -32 -138 32 -138 32 0 44 8 60 37 16 32 14 57
-10 87 -22 28 -55 34 -82 14z"/>
<path d="M4442 17770 c-15 -14 -22 -33 -22 -59 0 -48 27 -75 70 -69 32 5 35 2
21 -21 -6 -10 -21 -12 -50 -8 -35 4 -40 3 -30 -9 16 -20 73 -18 92 4 13 14 17
38 17 94 l0 76 -31 6 c-43 8 -43 8 -67 -14z"/>
<path d="M5312 17767 c-45 -48 -19 -127 41 -127 60 0 87 72 46 124 -25 32 -59
33 -87 3z"/>
<path d="M2657 17763 c-11 -11 -17 -13 -17 -5 0 7 -6 12 -14 12 -8 0 -18 -19
-25 -44 -15 -61 -14 -86 4 -86 8 0 15 9 15 20 0 27 60 94 73 81 5 -5 15 -7 22
-5 10 4 11 -5 4 -38 -11 -58 -11 -58 5 -58 7 0 30 25 50 55 20 31 40 53 45 51
5 -3 5 -25 0 -48 -11 -58 -11 -58 6 -58 9 0 16 14 20 38 3 20 8 47 10 58 7 32
-19 50 -50 36 -14 -7 -25 -16 -25 -22 0 -5 -4 -10 -10 -10 -5 0 -10 7 -10 15
0 8 -7 15 -15 15 -8 0 -15 -5 -15 -12 0 -6 -7 -4 -18 5 -23 21 -33 21 -55 0z"/>
<path d="M2905 17757 c-20 -17 -28 -35 -32 -70 -7 -61 12 -71 63 -32 35 27 36
27 29 5 -6 -18 -3 -21 12 -18 14 2 20 16 25 58 4 30 5 61 3 68 -7 21 -71 14
-100 -11z"/>
<path d="M3092 17758 c-19 -19 -22 -20 -22 -5 0 9 -6 17 -14 17 -13 0 -36 -74
-36 -115 0 -29 25 -14 55 32 35 55 59 68 50 29 -3 -14 -7 -37 -10 -51 -9 -42
19 -29 53 25 37 60 57 66 48 14 -4 -19 -10 -42 -13 -50 -6 -15 22 -20 31 -5 3
4 8 34 12 64 6 48 4 58 -10 63 -11 4 -29 -2 -45 -14 -27 -20 -28 -20 -39 -1
-16 25 -33 24 -60 -3z"/>
<path d="M2207 17083 c-2 -5 -10 -37 -16 -73 -7 -36 -17 -87 -22 -113 -9 -47
-6 -67 10 -67 4 0 13 24 20 54 l12 54 52 12 c29 7 60 19 70 28 18 16 23 58 9
80 -15 23 -125 43 -135 25z"/>
<path d="M3350 17064 c0 -9 -5 -34 -12 -55 -10 -35 -15 -39 -43 -39 -18 0 -39
-8 -47 -17 -19 -21 -36 -81 -30 -105 5 -25 41 -22 69 4 l24 22 6 -22 c10 -40
63 -24 63 19 0 4 -7 6 -16 2 -14 -5 -15 1 -9 48 3 30 11 70 16 89 13 50 11 70
-6 70 -8 0 -15 -7 -15 -16z"/>
<path d="M2351 16944 c-14 -18 -21 -41 -21 -70 0 -39 2 -44 23 -44 13 0 32 9
42 20 10 11 21 20 26 20 4 0 5 -9 2 -20 -7 -28 16 -25 26 3 5 13 11 44 13 68
l3 44 -46 3 c-41 3 -50 -1 -68 -24z"/>
<path d="M2730 16911 c-7 -32 -9 -64 -6 -70 11 -18 48 -13 73 11 l23 21 0 -21
c0 -36 42 -28 79 13 17 20 31 40 31 46 0 6 8 9 18 7 12 -2 19 -16 22 -43 4
-35 9 -40 33 -43 36 -4 64 20 79 69 8 30 8 42 -2 54 -17 20 -59 19 -83 -2 -18
-17 -19 -17 -32 0 -19 26 -31 21 -58 -26 -14 -24 -33 -50 -42 -57 -16 -13 -16
-9 -10 43 5 35 4 57 -2 57 -6 0 -27 -25 -47 -55 -39 -60 -61 -72 -49 -27 11
41 9 75 -3 79 -7 2 -16 -21 -24 -56z"/>
<path d="M4473 16683 c466 -2 1228 -2 1695 0 466 1 84 2 -848 2 -932 0 -1314
-1 -847 -2z"/>
<path d="M2499 16161 c-18 -14 -24 -29 -24 -61 0 -45 29 -80 64 -80 54 0 82
100 39 140 -27 25 -49 25 -79 1z"/>
<path d="M2649 16161 c-18 -14 -24 -29 -24 -61 0 -54 32 -84 79 -74 28 6 29 5
16 -11 -10 -13 -24 -16 -52 -12 -41 5 -50 -6 -19 -23 32 -17 58 -12 80 16 17
21 21 41 21 99 l0 73 -31 6 c-43 8 -44 8 -70 -13z"/>
<path d="M2286 15064 c-3 -9 -6 -28 -6 -42 0 -38 -10 -48 -53 -56 -39 -7 -60
-30 -71 -79 -15 -65 21 -88 64 -42 24 25 24 25 32 5 11 -29 35 -35 57 -16 16
15 19 15 24 1 17 -43 101 10 112 70 7 37 -2 51 -37 60 -22 6 -32 1 -53 -20
-14 -16 -25 -36 -25 -46 0 -16 -36 -46 -45 -37 -2 2 5 48 15 103 10 55 16 103
13 107 -7 13 -20 9 -27 -8z"/>
<path d="M2926 15068 c-2 -7 -11 -56 -20 -109 -26 -156 -20 -173 34 -90 17 27
38 55 46 62 14 11 15 5 8 -49 -4 -40 -3 -62 4 -62 13 0 20 19 28 81 5 38 3 53
-7 60 -20 13 -24 12 -58 -17 -17 -14 -31 -24 -31 -22 0 1 7 34 14 72 8 38 13
73 10 78 -8 12 -24 10 -28 -4z"/>
<path d="M6937 15073 c-3 -5 -8 -32 -12 -61 -5 -42 -11 -52 -24 -50 -10 2 -18
16 -21 41 -6 48 -22 49 -33 4 -6 -23 -16 -37 -30 -41 -21 -6 -21 -7 -4 -20 15
-11 16 -23 11 -71 -6 -47 -4 -57 7 -53 8 3 18 29 24 59 9 44 14 55 33 57 21 3
22 1 15 -59 -7 -74 1 -75 49 -5 46 70 58 70 51 2 -4 -36 -2 -56 5 -56 13 0 20
19 28 81 5 38 3 53 -7 60 -20 13 -24 12 -60 -18 l-33 -28 7 25 c15 52 20 140
9 140 -6 0 -13 -3 -15 -7z"/>
<path d="M7473 15068 c-9 -12 -44 -194 -43 -225 0 -32 19 -8 30 39 11 46 14
49 26 34 27 -37 75 -86 84 -86 18 0 10 17 -25 56 -41 46 -44 64 -10 64 47 0
90 62 67 96 -21 32 -110 47 -129 22z"/>
<path d="M3094 14961 c-26 -12 -56 -73 -52 -109 4 -34 37 -41 63 -12 22 24 33
26 31 4 0 -9 4 -19 11 -21 13 -5 38 91 32 122 -5 22 -49 30 -85 16z"/>
<path d="M3387 14950 c-22 -17 -26 -18 -37 -5 -20 24 -38 18 -55 -19 -9 -18
-28 -44 -42 -57 l-25 -24 7 45 c4 25 8 50 9 55 0 6 -6 10 -14 10 -10 0 -18
-16 -24 -52 -10 -60 -4 -83 23 -83 18 0 84 64 93 90 8 26 28 -2 28 -40 0 -34
4 -41 25 -46 30 -8 53 0 61 21 8 21 -3 32 -18 17 -14 -14 -38 -16 -38 -3 0 4
18 20 40 35 41 27 52 59 24 70 -24 9 -29 8 -57 -14z"/>
<path d="M3613 14960 c-48 -20 -72 -130 -30 -138 11 -2 32 9 49 25 27 25 30
26 24 6 -4 -12 -3 -24 2 -27 18 -11 30 19 34 79 l3 60 -30 2 c-16 1 -40 -2
-52 -7z"/>
<path d="M4015 14960 c-42 -16 -73 -86 -54 -121 13 -24 30 -24 62 1 l25 20 6
-22 c3 -14 9 -19 14 -13 13 14 35 123 27 135 -7 12 -51 12 -80 0z"/>
<path d="M4280 14957 c-32 -16 -60 -89 -44 -115 17 -27 51 -26 80 3 14 14 27
25 28 23 24 -53 48 -59 86 -23 46 44 51 107 9 120 -25 8 -66 -18 -81 -51 -6
-13 -19 -24 -29 -24 -10 0 -23 -9 -29 -20 -13 -24 -40 -27 -40 -4 0 19 19 56
34 66 6 4 22 8 34 8 14 0 22 5 20 13 -6 17 -39 19 -68 4z"/>
<path d="M5047 14943 l-27 -28 0 24 c0 13 -5 21 -12 19 -13 -5 -46 -150 -47
-210 -1 -56 16 -46 30 17 11 49 15 55 38 55 62 1 118 99 79 138 -18 18 -31 15
-61 -15z"/>
<path d="M5362 14960 c-27 -11 -54 -71 -50 -109 4 -33 37 -40 63 -11 22 24 33
26 31 4 0 -9 4 -19 11 -21 12 -4 37 94 31 125 -4 20 -50 26 -86 12z"/>
<path d="M5867 14953 c-15 -16 -19 -16 -27 -3 -15 24 -29 0 -36 -63 -6 -49 -4
-57 10 -57 9 0 16 7 16 16 0 21 31 72 47 78 29 11 44 -5 37 -40 -11 -59 42
-88 81 -44 23 26 12 37 -20 20 -29 -16 -49 -3 -21 14 11 6 33 23 50 39 30 26
30 28 12 42 -22 16 -54 11 -72 -10 -9 -12 -13 -10 -27 6 -21 23 -28 24 -50 2z"/>
<path d="M6080 14957 c-47 -24 -66 -137 -23 -137 9 0 27 10 40 22 30 28 37 19
23 -33 -15 -56 -36 -79 -72 -79 -15 0 -28 -4 -28 -10 0 -5 17 -10 38 -10 59 0
79 29 101 141 12 63 15 98 8 107 -12 15 -55 15 -87 -1z"/>
<path d="M7792 14962 c-50 -5 -86 -74 -66 -126 9 -24 32 -19 60 11 13 14 27
24 29 21 10 -9 -15 -102 -32 -120 -9 -10 -29 -18 -45 -18 -15 0 -28 -4 -28
-10 0 -5 15 -10 34 -10 54 0 77 33 98 137 9 48 17 93 18 99 0 14 -25 20 -68
16z"/>
<path d="M7857 14804 c-3 -3 -3 -12 0 -20 4 -12 53 -14 274 -14 262 0 269 0
269 20 0 20 -7 20 -268 20 -148 0 -271 -3 -275 -6z"/>
<path d="M3561 14048 c-5 -13 -12 -47 -16 -75 -4 -29 -12 -56 -18 -60 -5 -3
-58 -5 -117 -5 -95 2 -110 0 -134 -19 -51 -40 -27 -108 56 -157 46 -27 36 -42
-30 -42 -69 0 -103 -19 -86 -47 8 -13 26 -19 60 -21 102 -7 154 21 154 83 0
36 -19 60 -77 96 -18 12 -33 24 -33 29 0 13 185 28 197 16 2 -2 -3 -44 -11
-92 -20 -111 -20 -120 0 -128 21 -8 54 11 54 32 0 9 7 56 16 105 l16 87 33 0
c63 0 70 55 7 62 -17 2 -26 8 -24 17 2 8 6 43 9 78 l6 63 -27 0 c-18 0 -29 -7
-35 -22z"/>
<path d="M2382 13893 c-5 -10 -17 -69 -27 -132 -16 -106 -16 -115 0 -130 15
-15 18 -14 36 8 10 13 19 34 19 46 0 21 78 136 102 151 5 3 17 -4 25 -16 10
-14 22 -20 35 -17 17 5 19 2 13 -16 -3 -12 -9 -43 -12 -69 -5 -41 -2 -50 22
-73 23 -24 32 -27 73 -22 37 4 53 12 79 41 28 30 32 40 23 56 -14 26 -22 25
-57 -4 -35 -29 -66 -36 -70 -16 -2 9 17 26 53 45 64 34 104 80 104 118 0 33
-25 47 -81 47 -35 0 -47 -6 -80 -39 -27 -27 -39 -34 -39 -22 0 60 -75 81 -129
36 l-30 -26 -3 23 c-4 29 -43 37 -56 11z"/>
<path d="M2883 13889 c-64 -41 -108 -204 -68 -249 31 -34 70 -26 126 27 44 41
50 44 45 23 -3 -14 -13 -59 -21 -100 -20 -97 -38 -116 -117 -123 -114 -10
-119 -67 -6 -67 74 0 122 22 153 69 30 45 100 408 83 429 -7 8 -38 12 -87 12
-59 0 -83 -5 -108 -21z"/>
<path d="M3162 13901 c-7 -4 -23 -63 -35 -135 -19 -111 -20 -128 -7 -136 38
-24 51 -1 76 131 18 91 21 126 13 136 -13 15 -28 16 -47 4z"/>
<path d="M3720 13884 c-43 -36 -71 -97 -77 -164 -5 -53 -4 -58 23 -79 40 -31
104 -25 145 15 53 51 27 106 -29 60 -34 -29 -65 -36 -69 -16 -2 9 20 28 59 50
59 34 98 78 98 111 0 52 -97 67 -150 23z"/>
<path d="M3913 13898 c-6 -7 -20 -67 -32 -132 -19 -104 -20 -121 -8 -134 23
-22 55 1 63 45 7 39 47 104 87 141 l25 24 11 -21 c23 -42 75 -15 63 33 -14 59
-70 73 -120 31 l-30 -25 -6 25 c-7 27 -36 34 -53 13z"/>
<path d="M3722 13018 c-9 -9 -12 -68 -12 -204 0 -188 1 -193 22 -208 20 -14
194 -16 1658 -16 1464 0 1638 2 1658 16 21 15 22 20 22 208 0 136 -3 195 -12
204 -17 17 -3319 17 -3336 0z m3318 -202 c0 -158 -2 -185 -16 -190 -20 -8
-3248 -8 -3268 0 -14 5 -16 32 -16 190 l0 184 1650 0 1650 0 0 -184z"/>
<path d="M2396 12963 c-2 -10 -12 -57 -21 -105 -25 -131 7 -166 81 -90 l37 37
-5 -33 c-4 -26 -1 -32 11 -30 15 3 18 16 47 197 10 61 -14 51 -33 -13 -16 -54
-77 -154 -99 -163 -26 -10 -28 5 -11 82 10 42 17 89 17 105 0 33 -16 41 -24
13z"/>
<path d="M7206 12972 c-2 -4 -12 -52 -21 -107 -10 -55 -19 -103 -22 -107 -2
-5 -1 -13 2 -18 12 -19 35 11 35 45 0 17 3 35 7 38 3 4 27 -16 53 -45 55 -62
76 -51 25 13 -19 24 -35 47 -35 50 0 4 12 10 28 14 61 15 84 78 40 109 -23 16
-103 22 -112 8z"/>
<path d="M8176 12968 c-2 -7 -8 -31 -12 -53 -8 -35 -13 -40 -39 -43 -40 -5
-63 -27 -77 -73 -8 -30 -8 -42 2 -54 18 -21 33 -19 62 10 l26 25 6 -25 c8 -30
26 -32 49 -7 23 25 21 35 -3 27 -24 -8 -24 -10 -5 88 8 43 15 87 15 98 0 21
-19 26 -24 7z"/>
<path d="M12495 12969 c-2 -8 -8 -32 -13 -54 -7 -35 -12 -40 -37 -43 -36 -4
-59 -23 -75 -63 -26 -61 14 -104 55 -59 22 24 35 26 35 5 0 -21 27 -30 45 -15
20 16 20 44 0 36 -19 -7 -19 11 1 109 11 54 13 80 5 88 -7 7 -12 6 -16 -4z"/>
<path d="M8700 12920 c-15 -16 -30 -44 -34 -61 -29 -148 43 -176 127 -49 20
29 23 110 5 128 -22 22 -68 14 -98 -18z"/>
<path d="M11706 12943 c-3 -3 -6 -15 -6 -25 0 -29 -37 -59 -64 -52 -36 9 -64
-4 -81 -36 -31 -60 -10 -108 40 -96 25 6 43 31 32 42 -3 3 -14 0 -26 -7 -11
-7 -24 -10 -28 -5 -4 5 1 13 12 20 10 6 31 22 45 36 15 14 34 24 42 22 13 -3
14 -9 6 -42 -11 -42 -5 -75 12 -65 5 3 12 28 16 54 5 43 10 50 33 54 38 8 44
-1 38 -54 -5 -37 -3 -49 7 -49 15 0 26 30 26 73 0 20 5 27 20 27 23 0 27 25 6
33 -11 4 -13 16 -9 41 4 24 2 36 -6 36 -12 0 -15 -7 -26 -53 -5 -25 -10 -28
-38 -25 -29 3 -32 6 -29 35 3 30 -8 49 -22 36z"/>
<path d="M12856 12934 c-3 -9 -6 -24 -6 -34 0 -11 -10 -25 -22 -31 -21 -11
-21 -12 -3 -25 15 -11 16 -19 7 -55 -6 -24 -8 -47 -6 -51 9 -14 34 13 34 36 0
41 12 66 31 66 11 0 19 -6 19 -14 0 -7 11 -21 25 -30 34 -22 31 -34 -7 -38
-18 -2 -33 -7 -33 -13 0 -15 64 -18 81 -4 22 18 17 54 -11 69 -34 18 -31 28 8
32 44 4 31 23 -18 24 -78 3 -77 2 -75 32 3 40 1 52 -9 52 -5 0 -12 -7 -15 -16z"/>
<path d="M2780 12811 c-12 -58 -8 -87 11 -76 5 4 9 14 9 23 0 30 46 77 75 77
27 1 27 1 20 -52 -5 -45 -4 -52 9 -47 8 3 18 13 21 22 8 23 62 88 69 82 3 -3
0 -25 -5 -49 -10 -45 1 -76 17 -50 11 18 23 101 17 116 -8 20 -44 15 -70 -9
-21 -19 -23 -20 -23 -4 0 12 -5 16 -15 12 -9 -3 -25 0 -35 7 -16 9 -24 9 -40
0 -12 -8 -21 -9 -25 -3 -13 21 -23 8 -35 -49z"/>
<path d="M3205 12858 c-2 -7 -9 -35 -15 -62 -16 -74 1 -79 46 -12 39 59 57 71
50 34 -3 -13 -7 -35 -10 -50 -10 -47 12 -40 49 17 36 54 61 72 51 38 -13 -49
-16 -82 -7 -87 5 -4 13 -1 17 6 11 17 23 100 17 115 -7 19 -36 16 -59 -6 -20
-18 -21 -18 -32 0 -16 25 -30 24 -59 -3 -19 -18 -23 -19 -23 -5 0 21 -19 32
-25 15z"/>
<path d="M7478 12853 c-28 -33 -41 -79 -28 -102 15 -28 32 -26 65 7 l28 27 -7
-35 c-14 -75 -18 -130 -10 -130 14 1 54 37 54 49 0 6 -7 11 -15 11 -11 0 -14
7 -10 23 19 85 25 115 25 140 0 25 -3 27 -43 27 -29 0 -49 -6 -59 -17z"/>
<path d="M10874 12862 c-6 -4 -18 -21 -27 -37 -8 -17 -25 -39 -37 -50 l-22
-20 6 35 c4 19 10 43 13 53 4 14 0 18 -13 15 -14 -2 -21 -17 -27 -52 -4 -27
-6 -55 -3 -63 8 -19 37 -16 62 8 l22 21 7 -21 c10 -34 41 -24 83 25 39 46 69
53 57 14 -16 -50 44 -80 80 -40 22 25 14 36 -15 20 -42 -23 -44 -3 -2 25 31
21 42 34 40 49 -4 27 -44 33 -69 10 -18 -16 -20 -16 -38 0 -18 17 -20 16 -49
-26 -32 -46 -62 -77 -62 -62 0 5 4 25 9 45 9 40 2 62 -15 51z"/>
<path d="M12620 12843 c-15 -19 -20 -38 -18 -67 4 -48 27 -59 55 -27 26 31 32
26 26 -21 -7 -53 -26 -76 -66 -80 -47 -5 -47 -28 0 -28 64 1 84 30 103 150 16
102 16 100 -34 100 -36 0 -48 -5 -66 -27z"/>
<path d="M2775 12508 c-2 -7 -7 -31 -12 -53 -8 -36 -12 -40 -41 -43 -42 -4
-72 -43 -72 -94 0 -51 22 -60 61 -22 21 20 29 23 29 12 0 -26 27 -43 45 -28 8
7 15 19 15 27 0 9 -6 13 -15 9 -18 -7 -18 -6 0 91 8 43 15 86 15 96 0 20 -19
23 -25 5z"/>
<path d="M2992 12448 c-31 -15 -61 -67 -68 -119 -5 -36 -2 -49 16 -71 23 -30
65 -37 101 -18 34 19 22 32 -24 25 -57 -9 -72 8 -62 71 10 68 40 94 108 94 46
0 55 -3 64 -23 8 -17 7 -32 -4 -60 -21 -52 -33 -46 -26 13 l6 50 -46 0 c-38 0
-49 -4 -62 -24 -25 -37 -30 -89 -11 -105 15 -12 21 -10 46 14 22 21 30 24 30
13 0 -9 7 -22 16 -29 14 -11 21 -8 50 24 42 46 47 104 12 137 -25 23 -106 27
-146 8z"/>
<path d="M4787 12403 c-3 -5 -8 -31 -12 -59 -5 -40 -3 -53 10 -64 13 -11 20
-10 45 8 16 12 31 22 34 22 5 0 -19 -94 -28 -109 -4 -6 -25 -11 -47 -11 -28 0
-39 -4 -39 -15 0 -23 71 -20 97 5 25 22 26 27 48 134 21 103 9 114 -44 42 -23
-31 -44 -56 -46 -56 -3 0 -2 25 1 55 5 37 3 55 -4 55 -6 0 -13 -3 -15 -7z"/>
<path d="M3730 11863 c0 -5 753 -8 1672 -8 l1673 0 3 -199 c2 -149 -1 -202
-10 -214 -11 -13 -10 -14 2 -10 13 4 15 37 18 199 1 107 0 204 -3 217 l-5 22
-1675 0 c-921 0 -1675 -3 -1675 -7z"/>
<path d="M2396 11793 c-3 -10 -10 -47 -16 -83 -23 -138 -24 -140 -8 -140 9 0
17 18 24 52 l9 53 50 8 c59 10 85 30 85 67 0 41 -28 60 -88 60 -40 0 -52 -4
-56 -17z"/>
<path d="M3500 11793 c0 -10 -5 -35 -11 -55 -9 -35 -13 -38 -45 -38 -28 0 -38
-6 -54 -32 -25 -41 -26 -93 -3 -102 10 -4 28 1 45 14 34 25 34 25 41 0 6 -24
20 -25 41 -4 21 21 20 34 -3 34 -18 0 -18 2 0 91 11 50 16 95 13 100 -9 15
-24 10 -24 -8z"/>
<path d="M2915 11690 c-4 -6 -9 -35 -12 -65 -5 -45 -3 -56 11 -61 11 -4 26 2
40 15 26 25 36 26 36 7 0 -44 55 -23 96 35 29 42 44 43 44 3 0 -35 17 -64 38
-64 44 0 98 94 72 125 -16 19 -64 19 -80 0 -12 -14 -15 -14 -30 0 -9 8 -19 15
-22 15 -3 0 -20 -22 -38 -50 -18 -27 -37 -50 -42 -50 -6 0 -7 19 -3 50 4 29 3
50 -2 50 -6 0 -25 -22 -44 -50 -19 -27 -38 -50 -42 -50 -4 0 -5 23 -1 50 4 33
3 50 -4 50 -6 0 -14 -5 -17 -10z"/>
<path d="M4895 11028 c-2 -7 -7 -31 -12 -53 -7 -35 -13 -40 -38 -43 -38 -5
-61 -26 -75 -68 -21 -64 15 -99 55 -54 10 11 22 20 26 20 4 0 11 -9 14 -20 8
-25 33 -26 51 -2 19 25 17 35 -6 29 -11 -3 -20 -4 -20 -4 0 1 7 40 15 87 8 47
15 93 15 103 0 20 -19 23 -25 5z"/>
<path d="M5736 11031 c-7 -10 -36 -188 -36 -218 0 -20 5 -23 38 -23 60 0 99
48 90 111 -4 32 -35 36 -65 7 l-25 -23 5 30 c16 79 19 125 9 125 -6 0 -13 -4
-16 -9z"/>
<path d="M3786 10918 c-4 -14 -36 -192 -39 -218 -1 -8 5 -15 13 -15 10 0 17
16 23 53 8 48 11 52 35 52 15 0 38 9 51 19 20 15 25 28 25 67 1 39 -2 49 -17
52 -11 2 -30 -6 -43 -19 -19 -18 -24 -19 -24 -6 0 20 -19 32 -24 15z"/>
<path d="M4381 10893 c-10 -21 -28 -46 -40 -57 l-20 -19 6 52 c5 42 3 51 -9
51 -11 0 -18 -15 -23 -55 -3 -30 -4 -59 0 -65 10 -17 41 -11 61 11 l18 20 8
-20 c4 -12 16 -21 27 -21 19 0 81 62 81 80 0 6 7 10 15 10 10 0 15 -10 15 -34
0 -65 58 -75 97 -17 13 19 23 44 23 55 0 44 -47 61 -82 29 -17 -15 -19 -15
-36 0 -21 19 -34 12 -55 -28 -8 -17 -25 -39 -36 -49 l-22 -20 7 57 c8 68 -6
76 -35 20z"/>
<path d="M5053 10911 c-24 -23 -38 -71 -28 -101 9 -28 46 -25 76 6 l24 26 5
-24 c8 -31 37 -35 66 -7 l24 22 0 -21 c0 -12 5 -22 10 -22 14 0 27 37 31 90
l4 45 -38 3 c-42 4 -73 -16 -88 -55 -5 -13 -14 -20 -22 -17 -7 2 -22 -4 -32
-16 -33 -36 -47 -17 -24 34 8 17 21 26 43 28 40 4 40 22 1 26 -20 2 -38 -4
-52 -17z"/>
<path d="M6674 10922 c-13 -9 -35 -114 -26 -124 11 -11 25 3 57 54 17 27 34
48 38 48 7 0 2 -59 -7 -90 0 -3 3 -7 9 -10 5 -3 25 19 45 47 19 29 38 53 42
53 4 0 4 -25 1 -55 -4 -37 -2 -55 5 -55 14 0 25 41 26 95 1 48 -23 58 -59 25
l-22 -21 -6 20 c-7 27 -39 27 -63 0 l-19 -21 -5 21 c-3 12 -10 17 -16 13z"/>
<path d="M7687 10923 c-3 -5 -10 -27 -17 -51 -21 -80 9 -106 63 -54 l30 27 -7
-29 c-4 -15 -10 -41 -13 -57 -7 -36 -20 -47 -62 -51 -53 -5 -52 -28 1 -28 64
0 81 24 103 138 22 118 12 132 -39 57 -21 -30 -43 -55 -48 -55 -9 0 -5 34 8
82 5 17 -11 34 -19 21z"/>
<path d="M9042 10908 c-19 -19 -22 -20 -22 -5 0 9 -6 17 -13 17 -8 0 -17 -28
-26 -77 -22 -134 -24 -163 -13 -163 11 0 32 60 32 93 0 12 8 17 29 17 45 0 81
43 81 96 0 39 -3 44 -23 44 -12 0 -33 -10 -45 -22z"/>
<path d="M9777 10912 c-61 -67 -33 -161 31 -102 26 24 34 25 30 4 -4 -23 19
-29 25 -7 3 10 9 42 12 71 l7 52 -45 0 c-29 0 -49 -6 -60 -18z"/>
<path d="M10483 10903 c-10 -42 -9 -97 2 -103 6 -3 11 4 13 16 2 12 16 36 31
55 25 30 30 32 45 20 13 -11 16 -23 11 -52 -10 -57 10 -55 50 6 20 30 39 55
42 55 3 0 3 -22 -1 -50 -9 -65 12 -68 48 -6 39 67 50 69 43 8 -3 -29 -2 -54 4
-57 14 -9 30 44 27 89 -3 47 -27 59 -60 30 -18 -18 -20 -18 -29 -1 -13 23 -34
22 -57 -3 l-19 -21 -6 21 c-5 20 -27 29 -27 10 0 -6 -8 -5 -20 2 -16 10 -24
10 -42 -1 -16 -10 -23 -10 -26 -2 -7 20 -21 12 -29 -16z"/>
<path d="M4897 10633 c-3 -5 -8 -26 -11 -49 -7 -37 -11 -42 -44 -50 -68 -17
-111 -124 -54 -132 14 -2 33 5 47 18 l22 21 6 -20 c6 -23 36 -28 55 -9 18 18
14 31 -8 25 -22 -6 -22 -2 1 116 12 61 12 87 0 87 -6 0 -12 -3 -14 -7z"/>
<path d="M7623 10610 c-26 -11 -38 -43 -24 -67 7 -14 4 -25 -10 -43 -24 -32
-24 -65 1 -90 26 -26 46 -25 75 5 29 28 31 46 9 80 -16 24 -15 26 10 46 33 26
34 57 0 69 -29 12 -32 12 -61 0z"/>
<path d="M5567 10603 c-4 -3 -7 -17 -7 -29 0 -29 -30 -46 -68 -38 -64 13 -95
-37 -46 -75 31 -24 24 -41 -17 -41 -16 0 -29 -4 -29 -9 0 -16 33 -22 67 -10
41 13 45 49 8 73 -34 23 -31 33 11 38 52 6 65 -8 54 -56 -5 -22 -7 -44 -4 -48
12 -19 23 -4 35 47 9 42 16 55 31 55 22 0 24 16 3 24 -9 3 -15 19 -15 41 0 33
-8 43 -23 28z"/>
<path d="M7437 10604 c-4 -4 -7 -17 -7 -30 0 -27 -42 -58 -58 -42 -6 6 -25 8
-45 4 -54 -10 -59 -49 -11 -81 30 -19 23 -35 -17 -35 -36 0 -38 -17 -4 -26 28
-7 75 18 75 40 0 8 -14 26 -31 40 -23 20 -27 27 -16 32 23 8 92 0 91 -11 -1
-5 -4 -29 -8 -52 -5 -33 -3 -43 8 -43 16 0 26 21 26 55 0 36 10 55 31 55 23 0
25 18 3 27 -10 4 -14 16 -12 36 3 29 -10 45 -25 31z"/>
<path d="M3837 10513 l-27 -28 0 24 c0 49 -25 12 -37 -55 -25 -139 -27 -167
-12 -162 7 2 17 23 21 46 8 49 16 64 28 57 14 -8 68 22 80 44 16 31 12 88 -6
95 -9 3 -16 6 -18 6 -1 0 -14 -12 -29 -27z"/>
<path d="M4557 10519 c-24 -18 -28 -18 -33 -5 -11 28 -30 18 -65 -34 -19 -27
-38 -50 -42 -50 -4 0 -5 23 -1 50 8 63 -5 65 -43 5 -40 -64 -53 -65 -46 -3 5
41 3 50 -8 46 -15 -5 -26 -42 -28 -95 -1 -28 2 -33 22 -33 13 0 32 9 43 21
l18 20 8 -20 c13 -37 52 -24 95 32 28 36 37 35 43 -4 3 -17 15 -38 27 -46 19
-13 24 -12 52 14 31 28 48 78 34 99 -16 23 -49 25 -76 3z"/>
<path d="M5096 10519 c-22 -17 -26 -18 -26 -5 0 22 -27 20 -33 -1 -3 -10 -8
-39 -12 -65 -8 -63 10 -63 50 -1 39 61 56 67 44 16 -18 -80 -6 -84 45 -13 42
58 59 65 45 18 -13 -46 -11 -68 5 -68 13 0 26 48 26 101 0 36 -27 45 -55 19
-25 -24 -35 -25 -35 -6 0 24 -27 26 -54 5z"/>
<path d="M5735 10517 c-22 -19 -28 -33 -29 -68 -1 -41 1 -44 26 -47 17 -2 34
4 49 19 17 17 23 19 30 8 5 -8 9 -18 9 -22 0 -5 14 -7 32 -5 34 3 63 35 73 80
6 21 2 30 -19 43 -24 16 -28 16 -51 1 -14 -10 -31 -28 -37 -42 -6 -13 -19 -24
-29 -24 -9 0 -19 -7 -23 -15 -8 -21 -36 -19 -36 3 0 30 29 62 56 62 16 0 24 5
22 13 -8 21 -45 19 -73 -6z"/>
<path d="M6230 10531 c-15 -4 -32 -21 -42 -41 -35 -70 -13 -109 44 -77 24 14
28 14 28 2 0 -12 30 -24 30 -12 0 1 5 29 10 62 12 74 0 85 -70 66z"/>
<path d="M4895 10238 c-2 -7 -7 -31 -12 -53 -8 -35 -13 -41 -42 -45 -41 -6
-72 -44 -74 -90 -3 -48 24 -62 58 -30 22 21 28 22 35 10 5 -8 10 -18 10 -22 0
-15 27 -8 43 10 23 25 21 35 -3 29 -11 -3 -20 -4 -20 -4 0 1 7 40 15 87 8 47
15 93 15 103 0 20 -19 23 -25 5z"/>
<path d="M5736 10241 c-7 -10 -36 -188 -36 -218 0 -20 5 -23 38 -23 60 0 99
48 90 111 -4 32 -35 36 -65 7 l-25 -23 5 30 c16 79 19 125 9 125 -6 0 -13 -4
-16 -9z"/>
<path d="M8066 10238 c-2 -7 -8 -31 -12 -53 -8 -35 -13 -40 -40 -43 -18 -2
-38 -11 -47 -20 -55 -64 -28 -163 28 -102 10 11 22 20 26 20 4 0 11 -9 14 -20
8 -25 27 -26 48 -2 23 25 21 35 -3 27 -11 -3 -20 -4 -20 -2 0 3 7 41 15 84 8
43 15 88 15 101 0 23 -18 31 -24 10z"/>
<path d="M9311 10195 c-11 -50 -15 -55 -40 -55 -49 0 -87 -54 -79 -111 4 -31
38 -36 63 -9 22 24 35 26 35 5 0 -21 27 -30 45 -15 20 16 20 44 0 36 -19 -7
-19 24 -1 119 8 39 12 73 9 78 -11 18 -21 3 -32 -48z"/>
<path d="M3787 10133 c-8 -12 -30 -155 -31 -193 -1 -33 17 -56 21 -28 12 85
13 88 43 88 41 0 80 49 80 101 0 33 -3 39 -22 39 -12 0 -32 -10 -45 -22 l-23
-21 0 21 c0 21 -14 30 -23 15z"/>
<path d="M4306 10131 c-3 -4 -8 -34 -12 -64 -6 -48 -4 -58 10 -63 11 -4 29 2
46 14 l28 21 5 -20 c9 -33 47 -20 82 28 34 48 55 54 55 17 0 -64 39 -82 84
-37 31 31 43 69 29 92 -14 22 -57 25 -77 5 -16 -15 -18 -15 -35 0 -10 9 -20
16 -23 16 -4 0 -18 -19 -31 -43 -14 -24 -33 -50 -42 -57 -16 -13 -16 -9 -10
43 9 70 -3 74 -38 14 -14 -24 -33 -50 -42 -57 -14 -12 -15 -7 -9 44 5 37 3 56
-4 56 -6 0 -13 -4 -16 -9z"/>
<path d="M5058 10130 c-22 -13 -42 -75 -34 -106 9 -33 42 -31 78 3 28 26 28
26 28 5 0 -32 27 -38 60 -14 l28 21 6 -22 c9 -34 25 -8 35 54 5 30 7 57 4 62
-2 4 -22 7 -43 7 -41 0 -66 -17 -81 -56 -5 -14 -14 -21 -22 -18 -7 2 -22 -4
-32 -16 -33 -37 -47 -17 -23 35 8 18 19 25 40 25 18 0 28 5 28 15 0 17 -45 20
-72 5z"/>
<path d="M6521 10079 c-17 -86 -2 -95 44 -25 36 55 61 73 51 39 -2 -10 -7 -33
-11 -50 -10 -51 17 -42 53 18 36 57 54 58 41 2 -11 -51 -11 -53 5 -53 17 0 26
31 26 88 0 38 -2 42 -24 42 -14 0 -31 -9 -40 -21 l-14 -21 -11 21 c-15 27 -47
27 -62 -1 l-12 -22 -8 22 c-14 36 -24 25 -38 -39z"/>
<path d="M6766 10131 c-11 -18 -19 -131 -9 -131 5 0 19 17 31 38 11 21 31 47
43 58 l22 19 -7 -38 c-4 -21 -10 -45 -13 -53 -13 -34 27 -10 58 36 47 69 61
66 39 -10 -6 -20 -6 -38 -1 -43 14 -14 31 26 34 79 2 40 -1 49 -16 52 -11 2
-29 -6 -42 -18 l-23 -22 -7 21 c-8 27 -33 27 -62 -1 l-23 -21 0 21 c0 22 -14
30 -24 13z"/>
<path d="M7333 10124 c-4 -10 -7 -41 -8 -69 0 -60 18 -69 59 -28 l28 28 -7
-45 c-10 -66 -28 -88 -72 -92 -49 -4 -45 -22 5 -26 63 -5 92 46 108 186 4 38
3 62 -3 62 -5 0 -24 -22 -42 -50 -50 -77 -67 -81 -49 -12 8 32 8 46 0 54 -8 8
-13 6 -19 -8z"/>
<path d="M8211 10118 c-15 -34 -44 -218 -37 -225 13 -13 28 16 33 61 5 42 8
46 32 46 39 0 69 25 82 70 20 67 -10 93 -58 48 -19 -18 -23 -19 -23 -5 0 26
-19 30 -29 5z"/>
<path d="M8732 10128 c-5 -7 -12 -38 -14 -68 -2 -46 0 -55 15 -58 11 -2 29 6
42 18 l22 21 6 -20 c9 -35 42 -25 85 25 39 46 65 53 55 15 -3 -10 0 -28 6 -40
35 -64 132 32 105 103 -8 21 -52 20 -76 -1 -17 -15 -19 -15 -39 3 -22 20 -23
19 -53 -36 -8 -14 -24 -34 -36 -45 l-22 -20 7 38 c11 58 11 70 -2 74 -6 2 -19
-11 -28 -31 -17 -35 -51 -73 -60 -65 -2 3 0 22 5 44 10 42 0 65 -18 43z"/>
<path d="M4897 9843 c-3 -5 -8 -27 -12 -50 -6 -36 -10 -43 -30 -43 -39 0 -55
-11 -76 -52 -26 -50 -19 -88 15 -88 12 0 31 9 42 21 l18 20 8 -20 c9 -24 40
-28 58 -6 14 17 5 36 -15 29 -16 -6 -15 -1 6 109 12 61 11 87 0 87 -6 0 -12
-3 -14 -7z"/>
<path d="M5736 9841 c-6 -9 -36 -187 -36 -213 0 -15 9 -18 44 -18 38 0 48 4
66 30 15 21 20 41 18 67 -4 48 -27 54 -63 16 l-27 -28 6 35 c17 106 18 120 8
120 -6 0 -13 -4 -16 -9z"/>
<path d="M3837 9724 c-26 -26 -27 -26 -27 -5 0 11 -6 21 -13 21 -13 0 -33 -90
-45 -199 -6 -58 20 -52 30 7 9 55 14 62 44 62 14 0 36 11 50 25 20 20 25 33
22 68 -4 52 -24 59 -61 21z"/>
<path d="M3953 9735 c-25 -17 -49 -85 -40 -109 9 -22 43 -20 67 4 l20 20 0
-20 c0 -11 7 -20 15 -20 14 0 25 39 28 101 2 32 0 34 -33 37 -20 1 -45 -4 -57
-13z"/>
<path d="M4556 9729 c-23 -18 -27 -18 -32 -5 -10 25 -31 19 -53 -17 -11 -18
-30 -42 -42 -53 l-22 -19 7 40 c4 22 8 44 9 49 1 5 -4 11 -10 13 -7 2 -25 -16
-40 -41 -40 -66 -53 -67 -46 -4 5 41 3 50 -8 46 -15 -5 -26 -42 -28 -95 -1
-28 3 -33 21 -33 12 0 32 10 45 22 l23 21 0 -21 c0 -40 44 -28 86 23 40 48 54
49 54 6 0 -82 99 -58 116 28 6 27 3 37 -11 48 -25 18 -38 17 -69 -8z"/>
<path d="M5055 9727 c-22 -19 -28 -33 -29 -68 -1 -41 1 -44 26 -47 20 -2 35 4
52 23 l24 26 4 -23 c4 -31 35 -35 64 -7 l24 22 0 -21 c0 -12 6 -22 14 -22 20
0 41 121 23 132 -35 23 -89 2 -113 -43 -9 -19 -21 -29 -30 -25 -7 3 -18 -3
-24 -14 -13 -25 -40 -26 -40 -2 0 30 29 62 56 62 16 0 24 5 22 13 -8 21 -45
19 -73 -6z"/>
<path d="M7362 9728 c-19 -19 -22 -20 -22 -5 0 31 -29 18 -34 -15 -18 -105 -6
-121 39 -51 29 46 65 73 52 40 -14 -36 -19 -87 -9 -87 6 0 28 25 50 56 42 59
58 60 42 3 -13 -45 -13 -59 3 -59 7 0 18 23 24 51 19 77 -10 115 -52 69 -10
-11 -21 -20 -25 -20 -4 0 -10 9 -13 20 -7 26 -27 25 -55 -2z"/>
<path d="M6762 9688 c-5 -28 -8 -58 -5 -65 8 -20 44 -15 71 10 l25 22 -6 -25
c-4 -14 -7 -35 -7 -47 0 -32 -35 -63 -69 -63 -34 0 -49 -15 -25 -24 29 -11 84
5 101 30 16 25 54 200 45 209 -11 11 -22 3 -56 -45 -20 -27 -40 -50 -45 -50
-4 0 -5 19 0 43 11 57 11 57 -5 57 -8 0 -17 -20 -24 -52z"/>
<path d="M5277 9193 c-10 -9 -9 -401 1 -406 4 -3 6 87 4 199 l-3 204 853 3
853 2 -851 3 c-468 1 -854 -1 -857 -5z"/>
<path d="M2401 9133 c-8 -16 -19 -71 -38 -195 -4 -29 -2 -38 9 -38 9 0 17 18
24 52 9 52 9 52 56 63 57 12 88 36 88 67 0 34 -12 47 -51 58 -50 15 -77 12
-88 -7z"/>
<path d="M3506 9142 c-3 -5 -8 -28 -12 -51 -4 -24 -12 -44 -18 -46 -6 -2 -24
-6 -39 -9 -56 -13 -92 -127 -41 -134 11 -2 28 6 39 18 23 25 35 26 35 0 0 -23
29 -27 48 -8 16 16 15 28 -3 28 -19 0 -19 8 1 110 10 52 12 86 6 92 -6 6 -12
6 -16 0z"/>
<path d="M4084 9143 c-17 -12 -34 -49 -34 -75 0 -24 -45 -54 -56 -37 -10 16
-33 9 -59 -18 -25 -28 -25 -28 -25 -5 0 44 -24 16 -35 -41 -17 -85 -4 -90 46
-17 19 27 38 50 43 50 5 0 6 -22 2 -50 -5 -40 -4 -50 7 -50 17 0 27 30 27 78
0 21 5 32 14 32 22 0 26 -12 16 -56 -6 -25 -5 -43 1 -49 13 -13 29 12 29 47 0
37 10 58 26 58 17 0 17 5 2 30 -17 27 0 73 30 80 13 3 23 10 23 15 0 12 -42
18 -57 8z"/>
<path d="M8766 9142 c-3 -5 -10 -37 -16 -73 -6 -35 -15 -84 -19 -109 -5 -25
-7 -48 -5 -52 3 -5 37 -8 75 -8 44 0 68 4 64 10 -3 6 -28 10 -56 10 -48 0 -49
1 -49 29 0 53 8 61 62 61 62 0 62 23 0 28 -38 3 -42 6 -42 30 0 41 11 50 65
54 28 2 50 8 50 13 0 12 -121 19 -129 7z"/>
<path d="M9573 9138 c-6 -7 -14 -34 -17 -60 -4 -27 -10 -48 -14 -48 -20 1 -33
20 -30 46 2 21 -1 29 -12 29 -8 0 -16 -11 -18 -25 -2 -14 -13 -33 -25 -43 -20
-15 -20 -18 -6 -27 13 -8 15 -18 8 -52 -11 -58 -11 -58 5 -58 16 0 26 21 26
58 0 32 9 46 34 55 17 7 18 3 12 -53 -8 -71 3 -77 38 -22 25 40 53 68 61 60 3
-2 0 -20 -5 -39 -14 -46 -13 -59 5 -59 27 0 38 117 13 133 -14 9 -23 6 -48
-18 l-32 -30 7 40 c4 22 11 56 16 75 9 37 -1 59 -18 38z"/>
<path d="M11705 9139 c-2 -8 -8 -32 -13 -53 -7 -35 -12 -41 -42 -49 -19 -5
-41 -15 -49 -22 -12 -12 -17 -10 -31 7 -13 17 -20 19 -37 10 -11 -6 -29 -9
-40 -6 -19 5 -22 0 -29 -48 -11 -69 -11 -71 1 -75 6 -2 16 12 23 30 16 44 45
71 70 63 15 -5 19 -15 18 -49 -1 -35 2 -42 20 -45 11 -2 28 6 39 18 23 25 35
26 35 0 0 -20 15 -25 44 -14 20 8 21 34 1 34 -19 0 -19 22 2 115 12 56 13 79
5 87 -8 8 -13 8 -17 -3z"/>
<path d="M12497 9135 c-9 -9 -19 -31 -23 -50 -7 -37 -44 -71 -61 -54 -32 32
-98 -37 -91 -96 3 -27 7 -30 37 -30 21 0 38 6 45 17 15 25 -1 34 -23 14 -23
-21 -49 -12 -30 10 6 8 17 14 24 14 8 0 22 11 33 25 21 26 52 34 52 13 0 -7
-4 -30 -9 -51 -6 -24 -5 -39 1 -43 14 -9 25 12 33 62 4 32 11 43 28 48 20 6
21 7 5 17 -34 19 -16 83 25 91 10 1 18 8 18 13 -1 17 -48 17 -64 0z"/>
<path d="M12200 9068 c-7 -40 -16 -91 -21 -112 -4 -22 -6 -44 -3 -48 6 -9 65
-11 89 -2 21 9 45 56 45 92 0 40 -26 49 -63 21 l-30 -22 7 37 c3 20 9 52 12
71 5 27 3 35 -8 35 -10 0 -19 -22 -28 -72z"/>
<path d="M3166 9019 c-23 -18 -27 -18 -32 -5 -10 25 -31 19 -53 -17 -11 -18
-30 -42 -42 -53 l-21 -19 7 53 c8 63 -5 68 -39 14 -13 -20 -31 -44 -40 -51
-16 -13 -17 -10 -10 39 6 42 4 52 -7 48 -16 -5 -27 -39 -28 -90 -1 -33 2 -38
22 -38 13 0 32 9 43 21 l18 20 8 -20 c4 -12 16 -21 27 -21 18 0 73 54 84 82 7
21 31 -7 32 -38 0 -16 9 -32 22 -41 19 -13 24 -12 52 14 38 34 50 83 26 106
-22 22 -37 21 -69 -4z"/>
<path d="M3665 9017 c-22 -19 -28 -33 -29 -68 -1 -41 1 -44 26 -47 17 -2 34 4
49 19 17 17 23 19 30 8 5 -8 9 -17 9 -21 0 -5 13 -8 28 -8 66 0 110 117 51
135 -25 8 -66 -17 -81 -51 -7 -14 -17 -23 -25 -20 -7 3 -17 -4 -23 -14 -13
-25 -40 -26 -40 -2 0 30 29 62 56 62 16 0 24 5 22 13 -8 21 -45 19 -73 -6z"/>
<path d="M4247 9033 c-4 -4 -20 -7 -34 -8 -24 0 -28 -6 -39 -55 -7 -30 -10
-58 -8 -62 10 -17 23 -7 34 26 13 41 42 69 67 64 15 -3 17 -12 15 -51 -2 -27
1 -47 7 -47 6 0 25 23 43 50 18 28 37 50 41 50 5 0 6 -22 2 -50 -5 -34 -3 -50
4 -50 6 0 25 23 42 50 17 28 35 50 40 50 6 0 7 -21 3 -51 -10 -71 17 -63 30 9
14 84 -8 105 -58 56 -24 -25 -26 -25 -26 -6 0 29 -29 36 -55 12 -24 -23 -36
-26 -32 -8 1 7 -7 13 -18 14 -11 1 -27 5 -36 8 -8 4 -18 3 -22 -1z"/>
<path d="M4562 9030 c-26 -11 -55 -71 -50 -104 4 -30 41 -32 67 -5 l21 23 0
-22 c0 -12 6 -22 14 -22 15 0 42 113 31 130 -8 12 -52 12 -83 0z"/>
<path d="M10215 9020 c-22 -24 -35 -26 -35 -5 0 16 -15 21 -23 8 -3 -5 -8 -34
-12 -65 -9 -73 4 -75 47 -8 18 27 37 50 41 50 5 0 6 -22 2 -50 -5 -33 -3 -50
4 -50 5 0 25 23 43 50 18 28 37 50 41 50 5 0 6 -23 2 -51 -6 -41 -4 -50 6 -47
16 5 27 40 28 91 1 47 -21 58 -53 28 -26 -24 -36 -27 -36 -7 0 8 -7 17 -16 20
-21 8 -18 9 -39 -14z"/>
<path d="M10646 9019 c-21 -17 -26 -18 -26 -5 0 24 -19 19 -29 -6 -8 -20 -41
-191 -41 -210 0 -5 6 -8 14 -8 15 0 26 30 26 72 0 22 6 29 28 34 56 12 63 16
77 44 20 38 19 86 -1 94 -21 8 -18 9 -48 -15z"/>
<path d="M10768 9033 c-31 -8 -65 -84 -52 -117 9 -22 44 -20 70 5 l23 21 -6
-21 c-4 -15 -1 -21 10 -21 17 0 43 99 33 126 -5 13 -41 17 -78 7z"/>
<path d="M11365 9018 c-25 -19 -28 -20 -37 -5 -15 28 -31 19 -66 -33 -32 -49
-58 -67 -48 -32 17 60 17 82 2 82 -8 0 -23 -15 -32 -32 -18 -37 -43 -68 -54
-68 -4 0 -4 19 1 43 11 57 11 57 -6 57 -15 0 -18 -10 -30 -83 -7 -46 14 -59
57 -34 25 14 30 15 34 2 15 -38 70 -7 110 60 14 25 34 11 34 -25 0 -26 22 -60
38 -60 19 0 55 36 68 66 18 42 18 49 -2 68 -21 21 -36 20 -69 -6z"/>
<path d="M11870 9027 c-15 -7 -30 -28 -38 -51 -23 -71 7 -98 62 -55 26 20 27
20 24 3 -2 -12 3 -19 12 -19 11 0 17 16 22 55 4 30 5 61 3 68 -6 16 -53 15
-85 -1z"/>
<path d="M12712 9024 c-12 -8 -22 -10 -22 -5 0 6 -6 11 -14 11 -8 0 -16 -15
-20 -37 -14 -88 -1 -123 22 -59 16 42 45 69 69 62 14 -4 18 -16 18 -48 0 -42
1 -43 34 -43 21 0 38 6 45 17 15 24 0 34 -22 15 -23 -21 -32 -21 -32 -2 0 8 4
15 9 15 13 0 71 50 71 61 0 4 -10 13 -21 20 -17 9 -26 7 -48 -9 -27 -20 -28
-20 -39 -1 -15 23 -21 23 -50 3z"/>
<path d="M2780 8564 c-6 -14 -10 -43 -10 -64 0 -60 24 -60 81 0 48 51 67 53
61 4 -3 -23 21 -54 42 -54 18 0 57 40 50 51 -4 6 -13 4 -23 -5 -10 -9 -23 -16
-29 -16 -24 0 -11 20 28 45 52 33 55 65 6 65 -18 0 -39 -7 -46 -15 -12 -14
-15 -14 -30 0 -21 19 -40 19 -40 2 0 -8 -16 -31 -35 -53 l-36 -39 7 53 c6 57
-9 72 -26 26z"/>
<path d="M2776 7871 c-40 -44 -6 -129 49 -119 20 4 25 2 23 -11 -3 -12 -14
-16 -47 -14 -36 2 -41 0 -31 -13 18 -20 67 -17 90 6 16 16 20 33 20 94 l0 73
-44 1 c-30 1 -49 -4 -60 -17z"/>
<path d="M3065 7193 c-14 -70 -19 -78 -53 -81 -42 -4 -74 -51 -70 -102 4 -42
24 -49 57 -19 l23 21 14 -21 c18 -26 33 -27 50 -3 19 24 17 35 -6 29 -21 -5
-21 -10 5 123 7 36 11 68 8 73 -9 15 -23 6 -28 -20z"/>
<path d="M5211 7199 c-12 -30 -35 -162 -35 -206 0 -18 -3 -33 -8 -33 -13 0 -9
-27 5 -33 8 -3 82 -6 165 -6 133 -2 153 0 159 15 3 9 0 20 -8 25 -11 7 -8 14
14 36 l28 28 -6 -50 c-8 -56 -28 -85 -59 -85 -12 0 -28 -4 -36 -10 -12 -8 -12
-10 3 -16 24 -9 64 3 86 25 19 19 34 73 47 169 l7 52 -47 0 c-42 0 -48 -3 -66
-32 -21 -35 -26 -88 -11 -103 6 -6 -7 -10 -35 -10 -24 0 -44 2 -44 5 0 3 11
15 24 28 47 44 42 112 -8 112 -26 0 -37 -8 -59 -40 -21 -31 -22 -64 -1 -84 14
-15 14 -16 -5 -16 -12 0 -20 6 -18 13 1 8 -15 13 -51 15 -48 3 -52 5 -47 25
31 126 35 244 6 176z"/>
<path d="M3194 7056 c-20 -31 -41 -56 -46 -56 -9 0 -5 35 8 83 4 12 0 17 -14
17 -16 0 -20 -9 -25 -52 -10 -79 15 -99 65 -51 l28 27 -6 -34 c-4 -19 -12 -49
-20 -67 -10 -27 -18 -32 -51 -35 -46 -4 -46 -22 -1 -26 55 -5 84 35 103 142 9
55 12 93 6 99 -6 6 -24 -12 -47 -47z"/>
<path d="M3375 7090 c-9 -10 -20 -40 -22 -64 -7 -57 14 -70 58 -37 l30 22 -7
-38 c-9 -53 -29 -81 -61 -85 -38 -4 -42 -28 -4 -28 57 0 81 34 101 143 9 53
15 99 12 102 -3 3 -24 5 -47 5 -29 0 -47 -6 -60 -20z"/>
<path d="M4361 7085 c-59 -76 -14 -156 51 -90 l25 25 11 -25 c6 -14 20 -25 30
-25 19 0 72 45 72 61 0 16 -25 9 -43 -11 -25 -29 -41 -26 -32 7 9 38 22 51 52
55 15 2 28 9 31 16 3 10 -6 12 -34 10 -31 -2 -43 -9 -59 -35 -11 -18 -27 -32
-35 -33 -9 0 -23 -9 -33 -20 -25 -29 -41 -26 -32 7 9 38 22 51 52 55 42 5 41
28 0 28 -26 0 -41 -7 -56 -25z"/>
</g>
</svg>
